<svg xmlns="http://www.w3.org/2000/svg" width="800" height="800"><path d="M-33,-120L53,-107L224,-102Z" fill="#232323" stroke="#232323" stroke-width="1.51"/><path d="M110,910L-37,912L460,919Z" fill="#afafaf" stroke="#afafaf" stroke-width="1.51"/><path d="M425,914L172,906L460,919Z" fill="#c2c2c2" stroke="#c2c2c2" stroke-width="1.51"/><path d="M172,906L110,910L460,919Z" fill="#969696" stroke="#969696" stroke-width="1.51"/><path d="M224,-102L543,-95L637,-99Z" fill="#575757" stroke="#575757" stroke-width="1.51"/><path d="M-33,-120L224,-102L637,-99Z" fill="#818181" stroke="#818181" stroke-width="1.51"/><path d="M597,891L460,919L739,912Z" fill="#7b7b7b" stroke="#7b7b7b" stroke-width="1.51"/><path d="M739,912L460,919L790,916Z" fill="#cdcdcd" stroke="#cdcdcd" stroke-width="1.51"/><path d="M-33,-120L637,-99L790,-104Z" fill="#404040" stroke="#404040" stroke-width="1.51"/><path d="M872,-88L865,-26L902,54Z" fill="#5f5f5f" stroke="#5f5f5f" stroke-width="1.51"/><path d="M890,161L817,249L904,280Z" fill="#474747" stroke="#474747" stroke-width="1.51"/><path d="M901,392L830,462L908,502Z" fill="#2a2a2a" stroke="#2a2a2a" stroke-width="1.51"/><path d="M845,339L901,392L917,307Z" fill="#888888" stroke="#888888" stroke-width="1.51"/><path d="M901,392L908,502L917,307Z" fill="#bfbfbf" stroke="#bfbfbf" stroke-width="1.51"/><path d="M872,-88L902,54L921,96Z" fill="#adadad" stroke="#adadad" stroke-width="1.51"/><path d="M904,280L917,307L921,96Z" fill="#757575" stroke="#757575" stroke-width="1.51"/><path d="M890,161L904,280L921,96Z" fill="#9f9f9f" stroke="#9f9f9f" stroke-width="1.51"/><path d="M854,659L866,720L923,675Z" fill="#7f7f7f" stroke="#7f7f7f" stroke-width="1.51"/><path d="M865,599L854,659L923,675Z" fill="#636363" stroke="#636363" stroke-width="1.51"/><path d="M868,812L901,873L923,675Z" fill="#a2a2a2" stroke="#a2a2a2" stroke-width="1.51"/><path d="M866,720L868,812L923,675Z" fill="#737373" stroke="#737373" stroke-width="1.51"/><path d="M908,502L874,541L923,675Z" fill="#a4a4a4" stroke="#a4a4a4" stroke-width="1.51"/><path d="M874,541L865,599L923,675Z" fill="#454545" stroke="#454545" stroke-width="1.51"/><path d="M917,307L908,502L923,675Z" fill="#dddddd" stroke="#dddddd" stroke-width="1.51"/><path d="M921,96L917,307L923,675Z" fill="#b5b5b5" stroke="#b5b5b5" stroke-width="1.51"/><path d="M821,433L830,462L901,392Z" fill="#989898" stroke="#989898" stroke-width="1.51"/><path d="M902,54L846,54L921,96Z" fill="#343434" stroke="#343434" stroke-width="1.51"/><path d="M846,54L890,161L921,96Z" fill="#575757" stroke="#575757" stroke-width="1.51"/><path d="M846,54L827,158L890,161Z" fill="#aaaaaa" stroke="#aaaaaa" stroke-width="1.51"/><path d="M865,-26L846,54L902,54Z" fill="#808080" stroke="#808080" stroke-width="1.51"/><path d="M904,280L845,339L917,307Z" fill="#3c3c3c" stroke="#3c3c3c" stroke-width="1.51"/><path d="M866,720L837,727L868,812Z" fill="#b5b5b5" stroke="#b5b5b5" stroke-width="1.51"/><path d="M827,158L817,249L890,161Z" fill="#989898" stroke="#989898" stroke-width="1.51"/><path d="M830,462L874,541L908,502Z" fill="#9b9b9b" stroke="#9b9b9b" stroke-width="1.51"/><path d="M817,249L845,339L904,280Z" fill="#b0b0b0" stroke="#b0b0b0" stroke-width="1.51"/><path d="M868,812L796,819L901,873Z" fill="#a3a3a3" stroke="#a3a3a3" stroke-width="1.51"/><path d="M796,819L790,916L901,873Z" fill="#656565" stroke="#656565" stroke-width="1.51"/><path d="M845,339L821,433L901,392Z" fill="#9f9f9f" stroke="#9f9f9f" stroke-width="1.51"/><path d="M836,626L854,659L865,599Z" fill="#818181" stroke="#818181" stroke-width="1.51"/><path d="M830,462L800,520L874,541Z" fill="#a4a4a4" stroke="#a4a4a4" stroke-width="1.51"/><path d="M637,-99L646,-95L790,-104Z" fill="#6e6e6e" stroke="#6e6e6e" stroke-width="1.51"/><path d="M783,130L827,158L846,54Z" fill="#5a5a5a" stroke="#5a5a5a" stroke-width="1.51"/><path d="M790,-104L774,-84L865,-26Z" fill="#5f5f5f" stroke="#5f5f5f" stroke-width="1.51"/><path d="M774,-84L787,-17L865,-26Z" fill="#444444" stroke="#444444" stroke-width="1.51"/><path d="M787,-17L846,54L865,-26Z" fill="#9f9f9f" stroke="#9f9f9f" stroke-width="1.51"/><path d="M854,659L837,727L866,720Z" fill="#a1a1a1" stroke="#a1a1a1" stroke-width="1.51"/><path d="M837,727L796,819L868,812Z" fill="#a4a4a4" stroke="#a4a4a4" stroke-width="1.51"/><path d="M790,-104L865,-26L872,-88Z" fill="#ababab" stroke="#ababab" stroke-width="1.51"/><path d="M800,520L865,599L874,541Z" fill="#8e8e8e" stroke="#8e8e8e" stroke-width="1.51"/><path d="M817,249L779,287L845,339Z" fill="#525252" stroke="#525252" stroke-width="1.51"/><path d="M800,520L761,558L836,626Z" fill="#7f7f7f" stroke="#7f7f7f" stroke-width="1.51"/><path d="M761,558L774,613L836,626Z" fill="#767676" stroke="#767676" stroke-width="1.51"/><path d="M800,520L836,626L865,599Z" fill="#8b8b8b" stroke="#8b8b8b" stroke-width="1.51"/><path d="M769,423L821,433L845,339Z" fill="#6e6e6e" stroke="#6e6e6e" stroke-width="1.51"/><path d="M750,345L769,423L845,339Z" fill="#888888" stroke="#888888" stroke-width="1.51"/><path d="M758,56L783,130L846,54Z" fill="#434343" stroke="#434343" stroke-width="1.51"/><path d="M836,626L774,613L854,659Z" fill="#4d4d4d" stroke="#4d4d4d" stroke-width="1.51"/><path d="M739,718L837,727L854,659Z" fill="#464646" stroke="#464646" stroke-width="1.51"/><path d="M774,613L739,718L854,659Z" fill="#c3c3c3" stroke="#c3c3c3" stroke-width="1.51"/><path d="M783,130L790,147L827,158Z" fill="#727272" stroke="#727272" stroke-width="1.51"/><path d="M790,147L817,249L827,158Z" fill="#535353" stroke="#535353" stroke-width="1.51"/><path d="M738,786L796,819L837,727Z" fill="#c6c6c6" stroke="#c6c6c6" stroke-width="1.51"/><path d="M787,-17L758,56L846,54Z" fill="#767676" stroke="#767676" stroke-width="1.51"/><path d="M779,287L750,345L845,339Z" fill="#808080" stroke="#808080" stroke-width="1.51"/><path d="M790,147L740,163L817,249Z" fill="#c1c1c1" stroke="#c1c1c1" stroke-width="1.51"/><path d="M739,718L738,786L837,727Z" fill="#c2c2c2" stroke="#c2c2c2" stroke-width="1.51"/><path d="M558,891L460,919L597,891Z" fill="#676767" stroke="#676767" stroke-width="1.51"/><path d="M722,646L739,718L774,613Z" fill="#b9b9b9" stroke="#b9b9b9" stroke-width="1.51"/><path d="M821,433L769,423L830,462Z" fill="#1e1e1e" stroke="#1e1e1e" stroke-width="1.51"/><path d="M769,423L800,520L830,462Z" fill="#595959" stroke="#595959" stroke-width="1.51"/><path d="M769,423L729,458L800,520Z" fill="#a0a0a0" stroke="#a0a0a0" stroke-width="1.51"/><path d="M739,912L790,916L796,819Z" fill="#929292" stroke="#929292" stroke-width="1.51"/><path d="M740,163L714,246L817,249Z" fill="#7f7f7f" stroke="#7f7f7f" stroke-width="1.51"/><path d="M714,246L779,287L817,249Z" fill="#cecece" stroke="#cecece" stroke-width="1.51"/><path d="M704,801L709,891L738,786Z" fill="#5f5f5f" stroke="#5f5f5f" stroke-width="1.51"/><path d="M774,-84L745,-23L787,-17Z" fill="#a9a9a9" stroke="#a9a9a9" stroke-width="1.51"/><path d="M745,-23L758,56L787,-17Z" fill="#cacaca" stroke="#cacaca" stroke-width="1.51"/><path d="M646,-95L774,-84L790,-104Z" fill="#757575" stroke="#757575" stroke-width="1.51"/><path d="M709,891L739,912L796,819Z" fill="#767676" stroke="#767676" stroke-width="1.51"/><path d="M738,786L709,891L796,819Z" fill="#909090" stroke="#909090" stroke-width="1.51"/><path d="M729,458L761,558L800,520Z" fill="#c0c0c0" stroke="#c0c0c0" stroke-width="1.51"/><path d="M750,345L711,389L769,423Z" fill="#898989" stroke="#898989" stroke-width="1.51"/><path d="M783,130L740,163L790,147Z" fill="#cacaca" stroke="#cacaca" stroke-width="1.51"/><path d="M758,56L740,163L783,130Z" fill="#a0a0a0" stroke="#a0a0a0" stroke-width="1.51"/><path d="M729,458L684,540L761,558Z" fill="#898989" stroke="#898989" stroke-width="1.51"/><path d="M663,83L740,163L758,56Z" fill="#626262" stroke="#626262" stroke-width="1.51"/><path d="M688,319L750,345L779,287Z" fill="#727272" stroke="#727272" stroke-width="1.51"/><path d="M714,246L688,319L779,287Z" fill="#ababab" stroke="#ababab" stroke-width="1.51"/><path d="M709,891L597,891L739,912Z" fill="#a5a5a5" stroke="#a5a5a5" stroke-width="1.51"/><path d="M761,558L683,611L774,613Z" fill="#858585" stroke="#858585" stroke-width="1.51"/><path d="M683,611L722,646L774,613Z" fill="#535353" stroke="#535353" stroke-width="1.51"/><path d="M703,-28L745,-23L774,-84Z" fill="#8f8f8f" stroke="#8f8f8f" stroke-width="1.51"/><path d="M646,-95L703,-28L774,-84Z" fill="#838383" stroke="#838383" stroke-width="1.51"/><path d="M722,646L696,681L739,718Z" fill="#989898" stroke="#989898" stroke-width="1.51"/><path d="M745,-23L703,-28L758,56Z" fill="#acacac" stroke="#acacac" stroke-width="1.51"/><path d="M711,389L729,458L769,423Z" fill="#939393" stroke="#939393" stroke-width="1.51"/><path d="M224,-102L300,-74L452,-68Z" fill="#8f8f8f" stroke="#8f8f8f" stroke-width="1.51"/><path d="M224,-102L452,-68L543,-95Z" fill="#9c9c9c" stroke="#9c9c9c" stroke-width="1.51"/><path d="M702,770L738,786L739,718Z" fill="#9c9c9c" stroke="#9c9c9c" stroke-width="1.51"/><path d="M703,-28L663,83L758,56Z" fill="#696969" stroke="#696969" stroke-width="1.51"/><path d="M684,540L683,611L761,558Z" fill="#888888" stroke="#888888" stroke-width="1.51"/><path d="M673,177L714,246L740,163Z" fill="#686868" stroke="#686868" stroke-width="1.51"/><path d="M300,-74L377,-63L452,-68Z" fill="#6c6c6c" stroke="#6c6c6c" stroke-width="1.51"/><path d="M645,112L673,177L740,163Z" fill="#c1c1c1" stroke="#c1c1c1" stroke-width="1.51"/><path d="M663,83L645,112L740,163Z" fill="#a5a5a5" stroke="#a5a5a5" stroke-width="1.51"/><path d="M688,319L711,389L750,345Z" fill="#949494" stroke="#949494" stroke-width="1.51"/><path d="M711,389L680,440L729,458Z" fill="#676767" stroke="#676767" stroke-width="1.51"/><path d="M680,440L684,540L729,458Z" fill="#9e9e9e" stroke="#9e9e9e" stroke-width="1.51"/><path d="M696,681L702,770L739,718Z" fill="#666666" stroke="#666666" stroke-width="1.51"/><path d="M702,770L704,801L738,786Z" fill="#959595" stroke="#959595" stroke-width="1.51"/><path d="M680,440L627,466L684,540Z" fill="#cccccc" stroke="#cccccc" stroke-width="1.51"/><path d="M603,16L663,83L703,-28Z" fill="#c1c1c1" stroke="#c1c1c1" stroke-width="1.51"/><path d="M646,-95L638,-54L703,-28Z" fill="#b7b7b7" stroke="#b7b7b7" stroke-width="1.51"/><path d="M704,801L601,833L709,891Z" fill="#b8b8b8" stroke="#b8b8b8" stroke-width="1.51"/><path d="M683,611L696,681L722,646Z" fill="#888888" stroke="#888888" stroke-width="1.51"/><path d="M696,681L611,682L702,770Z" fill="#929292" stroke="#929292" stroke-width="1.51"/><path d="M611,682L590,741L702,770Z" fill="#757575" stroke="#757575" stroke-width="1.51"/><path d="M601,833L597,891L709,891Z" fill="#5b5b5b" stroke="#5b5b5b" stroke-width="1.51"/><path d="M688,319L616,351L711,389Z" fill="#cdcdcd" stroke="#cdcdcd" stroke-width="1.51"/><path d="M616,351L618,387L711,389Z" fill="#666666" stroke="#666666" stroke-width="1.51"/><path d="M582,265L688,319L714,246Z" fill="#e4e4e4" stroke="#e4e4e4" stroke-width="1.51"/><path d="M673,177L582,265L714,246Z" fill="#767676" stroke="#767676" stroke-width="1.51"/><path d="M618,387L680,440L711,389Z" fill="#cdcdcd" stroke="#cdcdcd" stroke-width="1.51"/><path d="M596,189L582,265L673,177Z" fill="#333333" stroke="#333333" stroke-width="1.51"/><path d="M638,-54L603,16L703,-28Z" fill="#8f8f8f" stroke="#8f8f8f" stroke-width="1.51"/><path d="M683,611L611,682L696,681Z" fill="#d1d1d1" stroke="#d1d1d1" stroke-width="1.51"/><path d="M702,770L601,833L704,801Z" fill="#7b7b7b" stroke="#7b7b7b" stroke-width="1.51"/><path d="M590,741L601,833L702,770Z" fill="#a1a1a1" stroke="#a1a1a1" stroke-width="1.51"/><path d="M584,636L611,682L683,611Z" fill="#5c5c5c" stroke="#5c5c5c" stroke-width="1.51"/><path d="M582,541L683,611L684,540Z" fill="#a9a9a9" stroke="#a9a9a9" stroke-width="1.51"/><path d="M582,265L616,351L688,319Z" fill="#383838" stroke="#383838" stroke-width="1.51"/><path d="M582,541L584,636L683,611Z" fill="#363636" stroke="#363636" stroke-width="1.51"/><path d="M627,466L582,541L684,540Z" fill="#787878" stroke="#787878" stroke-width="1.51"/><path d="M618,387L627,466L680,440Z" fill="#707070" stroke="#707070" stroke-width="1.51"/><path d="M582,541L565,561L584,636Z" fill="#a4a4a4" stroke="#a4a4a4" stroke-width="1.51"/><path d="M645,112L596,189L673,177Z" fill="#a1a1a1" stroke="#a1a1a1" stroke-width="1.51"/><path d="M582,116L645,112L663,83Z" fill="#545454" stroke="#545454" stroke-width="1.51"/><path d="M603,16L582,116L663,83Z" fill="#0f0f0f" stroke="#0f0f0f" stroke-width="1.51"/><path d="M582,116L596,189L645,112Z" fill="#616161" stroke="#616161" stroke-width="1.51"/><path d="M637,-99L638,-54L646,-95Z" fill="#8b8b8b" stroke="#8b8b8b" stroke-width="1.51"/><path d="M618,387L555,485L627,466Z" fill="#2d2d2d" stroke="#2d2d2d" stroke-width="1.51"/><path d="M555,485L582,541L627,466Z" fill="#bdbdbd" stroke="#bdbdbd" stroke-width="1.51"/><path d="M637,-99L543,-95L638,-54Z" fill="#636363" stroke="#636363" stroke-width="1.51"/><path d="M543,-95L603,16L638,-54Z" fill="#737373" stroke="#737373" stroke-width="1.51"/><path d="M522,415L555,485L618,387Z" fill="#919191" stroke="#919191" stroke-width="1.51"/><path d="M582,116L556,138L596,189Z" fill="#aeaeae" stroke="#aeaeae" stroke-width="1.51"/><path d="M543,-95L516,3L603,16Z" fill="#757575" stroke="#757575" stroke-width="1.51"/><path d="M552,203L582,265L596,189Z" fill="#777777" stroke="#777777" stroke-width="1.51"/><path d="M590,741L549,740L601,833Z" fill="#bfbfbf" stroke="#bfbfbf" stroke-width="1.51"/><path d="M518,30L582,116L603,16Z" fill="#757575" stroke="#757575" stroke-width="1.51"/><path d="M584,636L572,642L611,682Z" fill="#9b9b9b" stroke="#9b9b9b" stroke-width="1.51"/><path d="M582,265L509,326L616,351Z" fill="#797979" stroke="#797979" stroke-width="1.51"/><path d="M616,351L522,415L618,387Z" fill="#7a7a7a" stroke="#7a7a7a" stroke-width="1.51"/><path d="M549,740L507,787L601,833Z" fill="#949494" stroke="#949494" stroke-width="1.51"/><path d="M509,326L522,415L616,351Z" fill="#666666" stroke="#666666" stroke-width="1.51"/><path d="M558,891L597,891L601,833Z" fill="#707070" stroke="#707070" stroke-width="1.51"/><path d="M549,740L590,741L611,682Z" fill="#828282" stroke="#828282" stroke-width="1.51"/><path d="M572,642L549,740L611,682Z" fill="#b1b1b1" stroke="#b1b1b1" stroke-width="1.51"/><path d="M508,664L549,740L572,642Z" fill="#787878" stroke="#787878" stroke-width="1.51"/><path d="M516,3L518,30L603,16Z" fill="#8b8b8b" stroke="#8b8b8b" stroke-width="1.51"/><path d="M565,561L572,642L584,636Z" fill="#5a5a5a" stroke="#5a5a5a" stroke-width="1.51"/><path d="M507,787L558,891L601,833Z" fill="#818181" stroke="#818181" stroke-width="1.51"/><path d="M518,30L496,99L582,116Z" fill="#424242" stroke="#424242" stroke-width="1.51"/><path d="M556,138L552,203L596,189Z" fill="#b6b6b6" stroke="#b6b6b6" stroke-width="1.51"/><path d="M552,203L528,225L582,265Z" fill="#4f4f4f" stroke="#4f4f4f" stroke-width="1.51"/><path d="M555,485L501,532L565,561Z" fill="#595959" stroke="#595959" stroke-width="1.51"/><path d="M565,561L503,638L572,642Z" fill="#272727" stroke="#272727" stroke-width="1.51"/><path d="M555,485L565,561L582,541Z" fill="#969696" stroke="#969696" stroke-width="1.51"/><path d="M496,99L556,138L582,116Z" fill="#5b5b5b" stroke="#5b5b5b" stroke-width="1.51"/><path d="M528,225L509,326L582,265Z" fill="#8c8c8c" stroke="#8c8c8c" stroke-width="1.51"/><path d="M286,881L172,906L425,914Z" fill="#7a7a7a" stroke="#7a7a7a" stroke-width="1.51"/><path d="M507,787L468,822L558,891Z" fill="#999999" stroke="#999999" stroke-width="1.51"/><path d="M503,638L508,664L572,642Z" fill="#858585" stroke="#858585" stroke-width="1.51"/><path d="M501,532L503,638L565,561Z" fill="#969696" stroke="#969696" stroke-width="1.51"/><path d="M485,82L496,99L518,30Z" fill="#747474" stroke="#747474" stroke-width="1.51"/><path d="M496,99L440,207L528,225Z" fill="#c1c1c1" stroke="#c1c1c1" stroke-width="1.51"/><path d="M452,-68L516,3L543,-95Z" fill="#b0b0b0" stroke="#b0b0b0" stroke-width="1.51"/><path d="M528,225L552,203L556,138Z" fill="#606060" stroke="#606060" stroke-width="1.51"/><path d="M496,99L528,225L556,138Z" fill="#9d9d9d" stroke="#9d9d9d" stroke-width="1.51"/><path d="M468,822L460,919L558,891Z" fill="#909090" stroke="#909090" stroke-width="1.51"/><path d="M441,440L501,532L522,415Z" fill="#949494" stroke="#949494" stroke-width="1.51"/><path d="M522,415L501,532L555,485Z" fill="#8f8f8f" stroke="#8f8f8f" stroke-width="1.51"/><path d="M468,315L509,326L528,225Z" fill="#c3c3c3" stroke="#c3c3c3" stroke-width="1.51"/><path d="M508,664L450,702L549,740Z" fill="#aaaaaa" stroke="#aaaaaa" stroke-width="1.51"/><path d="M489,781L507,787L549,740Z" fill="#c1c1c1" stroke="#c1c1c1" stroke-width="1.51"/><path d="M450,702L489,781L549,740Z" fill="#cdcdcd" stroke="#cdcdcd" stroke-width="1.51"/><path d="M452,-68L471,1L516,3Z" fill="#9b9b9b" stroke="#9b9b9b" stroke-width="1.51"/><path d="M437,256L468,315L528,225Z" fill="#bbbbbb" stroke="#bbbbbb" stroke-width="1.51"/><path d="M501,532L417,596L503,638Z" fill="#8d8d8d" stroke="#8d8d8d" stroke-width="1.51"/><path d="M468,315L446,416L509,326Z" fill="#b3b3b3" stroke="#b3b3b3" stroke-width="1.51"/><path d="M509,326L446,416L522,415Z" fill="#adadad" stroke="#adadad" stroke-width="1.51"/><path d="M440,207L437,256L528,225Z" fill="#555555" stroke="#555555" stroke-width="1.51"/><path d="M433,533L417,596L501,532Z" fill="#3e3e3e" stroke="#3e3e3e" stroke-width="1.51"/><path d="M446,416L441,440L522,415Z" fill="#868686" stroke="#868686" stroke-width="1.51"/><path d="M397,133L440,207L496,99Z" fill="#606060" stroke="#606060" stroke-width="1.51"/><path d="M441,440L433,533L501,532Z" fill="#8b8b8b" stroke="#8b8b8b" stroke-width="1.51"/><path d="M516,3L471,1L518,30Z" fill="#dcdcdc" stroke="#dcdcdc" stroke-width="1.51"/><path d="M471,1L485,82L518,30Z" fill="#adadad" stroke="#adadad" stroke-width="1.51"/><path d="M489,781L468,822L507,787Z" fill="#979797" stroke="#979797" stroke-width="1.51"/><path d="M503,638L426,683L508,664Z" fill="#c3c3c3" stroke="#c3c3c3" stroke-width="1.51"/><path d="M426,683L450,702L508,664Z" fill="#888888" stroke="#888888" stroke-width="1.51"/><path d="M417,596L426,683L503,638Z" fill="#3d3d3d" stroke="#3d3d3d" stroke-width="1.51"/><path d="M425,914L460,919L468,822Z" fill="#313131" stroke="#313131" stroke-width="1.51"/><path d="M485,82L397,133L496,99Z" fill="#525252" stroke="#525252" stroke-width="1.51"/><path d="M400,478L433,533L441,440Z" fill="#a5a5a5" stroke="#a5a5a5" stroke-width="1.51"/><path d="M385,364L446,416L468,315Z" fill="#656565" stroke="#656565" stroke-width="1.51"/><path d="M471,1L366,50L485,82Z" fill="#3d3d3d" stroke="#3d3d3d" stroke-width="1.51"/><path d="M384,748L468,822L489,781Z" fill="#6f6f6f" stroke="#6f6f6f" stroke-width="1.51"/><path d="M450,702L384,748L489,781Z" fill="#636363" stroke="#636363" stroke-width="1.51"/><path d="M366,50L397,133L485,82Z" fill="#6c6c6c" stroke="#6c6c6c" stroke-width="1.51"/><path d="M358,863L425,914L468,822Z" fill="#8b8b8b" stroke="#8b8b8b" stroke-width="1.51"/><path d="M384,748L367,788L468,822Z" fill="#c8c8c8" stroke="#c8c8c8" stroke-width="1.51"/><path d="M452,-68L372,-33L471,1Z" fill="#676767" stroke="#676767" stroke-width="1.51"/><path d="M372,-33L366,50L471,1Z" fill="#cccccc" stroke="#cccccc" stroke-width="1.51"/><path d="M367,788L358,863L468,822Z" fill="#8a8a8a" stroke="#8a8a8a" stroke-width="1.51"/><path d="M437,256L364,314L468,315Z" fill="#787878" stroke="#787878" stroke-width="1.51"/><path d="M364,314L385,364L468,315Z" fill="#acacac" stroke="#acacac" stroke-width="1.51"/><path d="M377,-63L372,-33L452,-68Z" fill="#afafaf" stroke="#afafaf" stroke-width="1.51"/><path d="M350,1L366,50L372,-33Z" fill="#a7a7a7" stroke="#a7a7a7" stroke-width="1.51"/><path d="M385,364L410,428L446,416Z" fill="#bcbcbc" stroke="#bcbcbc" stroke-width="1.51"/><path d="M426,683L384,748L450,702Z" fill="#757575" stroke="#757575" stroke-width="1.51"/><path d="M388,220L437,256L440,207Z" fill="#636363" stroke="#636363" stroke-width="1.51"/><path d="M397,133L388,220L440,207Z" fill="#a3a3a3" stroke="#a3a3a3" stroke-width="1.51"/><path d="M410,428L441,440L446,416Z" fill="#656565" stroke="#656565" stroke-width="1.51"/><path d="M357,163L388,220L397,133Z" fill="#818181" stroke="#818181" stroke-width="1.51"/><path d="M417,596L334,654L426,683Z" fill="#949494" stroke="#949494" stroke-width="1.51"/><path d="M356,260L364,314L437,256Z" fill="#aeaeae" stroke="#aeaeae" stroke-width="1.51"/><path d="M410,428L400,478L441,440Z" fill="#505050" stroke="#505050" stroke-width="1.51"/><path d="M351,513L417,596L433,533Z" fill="#8b8b8b" stroke="#8b8b8b" stroke-width="1.51"/><path d="M388,220L356,260L437,256Z" fill="#8b8b8b" stroke="#8b8b8b" stroke-width="1.51"/><path d="M358,863L286,881L425,914Z" fill="#7f7f7f" stroke="#7f7f7f" stroke-width="1.51"/><path d="M400,478L351,513L433,533Z" fill="#bbbbbb" stroke="#bbbbbb" stroke-width="1.51"/><path d="M334,654L384,748L426,683Z" fill="#757575" stroke="#757575" stroke-width="1.51"/><path d="M53,-107L133,-91L224,-102Z" fill="#656565" stroke="#656565" stroke-width="1.51"/><path d="M385,364L337,406L410,428Z" fill="#818181" stroke="#818181" stroke-width="1.51"/><path d="M351,513L323,613L417,596Z" fill="#979797" stroke="#979797" stroke-width="1.51"/><path d="M323,613L334,654L417,596Z" fill="#5f5f5f" stroke="#5f5f5f" stroke-width="1.51"/><path d="M365,227L356,260L388,220Z" fill="#494949" stroke="#494949" stroke-width="1.51"/><path d="M330,466L400,478L410,428Z" fill="#414141" stroke="#414141" stroke-width="1.51"/><path d="M337,406L330,466L410,428Z" fill="#777777" stroke="#777777" stroke-width="1.51"/><path d="M338,802L358,863L367,788Z" fill="#777777" stroke="#777777" stroke-width="1.51"/><path d="M334,654L318,748L384,748Z" fill="#8d8d8d" stroke="#8d8d8d" stroke-width="1.51"/><path d="M357,163L365,227L388,220Z" fill="#5f5f5f" stroke="#5f5f5f" stroke-width="1.51"/><path d="M366,50L315,134L397,133Z" fill="#808080" stroke="#808080" stroke-width="1.51"/><path d="M330,466L351,513L400,478Z" fill="#b1b1b1" stroke="#b1b1b1" stroke-width="1.51"/><path d="M315,134L357,163L397,133Z" fill="#aeaeae" stroke="#aeaeae" stroke-width="1.51"/><path d="M347,43L315,134L366,50Z" fill="#626262" stroke="#626262" stroke-width="1.51"/><path d="M350,1L347,43L366,50Z" fill="#aaaaaa" stroke="#aaaaaa" stroke-width="1.51"/><path d="M318,748L367,788L384,748Z" fill="#bababa" stroke="#bababa" stroke-width="1.51"/><path d="M364,314L337,406L385,364Z" fill="#8c8c8c" stroke="#8c8c8c" stroke-width="1.51"/><path d="M266,356L337,406L364,314Z" fill="#838383" stroke="#838383" stroke-width="1.51"/><path d="M300,-74L372,-33L377,-63Z" fill="#aaaaaa" stroke="#aaaaaa" stroke-width="1.51"/><path d="M318,748L338,802L367,788Z" fill="#d2d2d2" stroke="#d2d2d2" stroke-width="1.51"/><path d="M300,-74L350,1L372,-33Z" fill="#909090" stroke="#909090" stroke-width="1.51"/><path d="M271,101L315,134L347,43Z" fill="#363636" stroke="#363636" stroke-width="1.51"/><path d="M294,499L323,613L351,513Z" fill="#4f4f4f" stroke="#4f4f4f" stroke-width="1.51"/><path d="M357,163L247,191L365,227Z" fill="#737373" stroke="#737373" stroke-width="1.51"/><path d="M247,191L255,240L365,227Z" fill="#727272" stroke="#727272" stroke-width="1.51"/><path d="M356,260L266,356L364,314Z" fill="#565656" stroke="#565656" stroke-width="1.51"/><path d="M300,-74L279,-14L350,1Z" fill="#474747" stroke="#474747" stroke-width="1.51"/><path d="M255,240L266,356L356,260Z" fill="#a2a2a2" stroke="#a2a2a2" stroke-width="1.51"/><path d="M255,240L356,260L365,227Z" fill="#6b6b6b" stroke="#6b6b6b" stroke-width="1.51"/><path d="M315,134L247,191L357,163Z" fill="#6c6c6c" stroke="#6c6c6c" stroke-width="1.51"/><path d="M338,802L286,881L358,863Z" fill="#a1a1a1" stroke="#a1a1a1" stroke-width="1.51"/><path d="M224,-102L268,-73L300,-74Z" fill="#b1b1b1" stroke="#b1b1b1" stroke-width="1.51"/><path d="M294,499L286,619L323,613Z" fill="#646464" stroke="#646464" stroke-width="1.51"/><path d="M241,695L318,748L334,654Z" fill="#656565" stroke="#656565" stroke-width="1.51"/><path d="M279,-14L266,32L347,43Z" fill="#8e8e8e" stroke="#8e8e8e" stroke-width="1.51"/><path d="M266,32L271,101L347,43Z" fill="#404040" stroke="#404040" stroke-width="1.51"/><path d="M279,-14L347,43L350,1Z" fill="#a5a5a5" stroke="#a5a5a5" stroke-width="1.51"/><path d="M330,466L294,499L351,513Z" fill="#b2b2b2" stroke="#b2b2b2" stroke-width="1.51"/><path d="M279,422L330,466L337,406Z" fill="#4f4f4f" stroke="#4f4f4f" stroke-width="1.51"/><path d="M252,849L286,881L338,802Z" fill="#939393" stroke="#939393" stroke-width="1.51"/><path d="M224,558L286,619L294,499Z" fill="#b1b1b1" stroke="#b1b1b1" stroke-width="1.51"/><path d="M323,613L286,619L334,654Z" fill="#3f3f3f" stroke="#3f3f3f" stroke-width="1.51"/><path d="M266,356L279,422L337,406Z" fill="#8c8c8c" stroke="#8c8c8c" stroke-width="1.51"/><path d="M318,748L232,758L338,802Z" fill="#969696" stroke="#969696" stroke-width="1.51"/><path d="M232,758L252,849L338,802Z" fill="#7b7b7b" stroke="#7b7b7b" stroke-width="1.51"/><path d="M286,619L241,695L334,654Z" fill="#bababa" stroke="#bababa" stroke-width="1.51"/><path d="M279,422L294,499L330,466Z" fill="#3d3d3d" stroke="#3d3d3d" stroke-width="1.51"/><path d="M245,506L224,558L294,499Z" fill="#999999" stroke="#999999" stroke-width="1.51"/><path d="M241,695L232,758L318,748Z" fill="#aeaeae" stroke="#aeaeae" stroke-width="1.51"/><path d="M268,-73L279,-14L300,-74Z" fill="#b8b8b8" stroke="#b8b8b8" stroke-width="1.51"/><path d="M271,101L247,191L315,134Z" fill="#cfcfcf" stroke="#cfcfcf" stroke-width="1.51"/><path d="M255,240L190,321L266,356Z" fill="#282828" stroke="#282828" stroke-width="1.51"/><path d="M212,146L247,191L271,101Z" fill="#8a8a8a" stroke="#8a8a8a" stroke-width="1.51"/><path d="M279,422L245,506L294,499Z" fill="#c1c1c1" stroke="#c1c1c1" stroke-width="1.51"/><path d="M29,900L-37,912L110,910Z" fill="#959595" stroke="#959595" stroke-width="1.51"/><path d="M266,356L204,393L279,422Z" fill="#8b8b8b" stroke="#8b8b8b" stroke-width="1.51"/><path d="M268,-73L206,-53L279,-14Z" fill="#888888" stroke="#888888" stroke-width="1.51"/><path d="M252,849L172,906L286,881Z" fill="#3a3a3a" stroke="#3a3a3a" stroke-width="1.51"/><path d="M204,589L241,695L286,619Z" fill="#616161" stroke="#616161" stroke-width="1.51"/><path d="M224,558L204,589L286,619Z" fill="#656565" stroke="#656565" stroke-width="1.51"/><path d="M266,32L188,32L271,101Z" fill="#424242" stroke="#424242" stroke-width="1.51"/><path d="M168,454L245,506L279,422Z" fill="#3d3d3d" stroke="#3d3d3d" stroke-width="1.51"/><path d="M204,393L168,454L279,422Z" fill="#6d6d6d" stroke="#6d6d6d" stroke-width="1.51"/><path d="M188,32L266,32L279,-14Z" fill="#a3a3a3" stroke="#a3a3a3" stroke-width="1.51"/><path d="M206,-53L188,32L279,-14Z" fill="#6d6d6d" stroke="#6d6d6d" stroke-width="1.51"/><path d="M209,759L173,810L232,758Z" fill="#a7a7a7" stroke="#a7a7a7" stroke-width="1.51"/><path d="M232,758L173,810L252,849Z" fill="#262626" stroke="#262626" stroke-width="1.51"/><path d="M170,272L190,321L255,240Z" fill="#aaaaaa" stroke="#aaaaaa" stroke-width="1.51"/><path d="M188,32L212,146L271,101Z" fill="#414141" stroke="#414141" stroke-width="1.51"/><path d="M224,-102L206,-53L268,-73Z" fill="#727272" stroke="#727272" stroke-width="1.51"/><path d="M247,191L223,195L255,240Z" fill="#5c5c5c" stroke="#5c5c5c" stroke-width="1.51"/><path d="M190,321L204,393L266,356Z" fill="#787878" stroke="#787878" stroke-width="1.51"/><path d="M209,759L232,758L241,695Z" fill="#676767" stroke="#676767" stroke-width="1.51"/><path d="M204,589L162,684L241,695Z" fill="#939393" stroke="#939393" stroke-width="1.51"/><path d="M212,146L223,195L247,191Z" fill="#6c6c6c" stroke="#6c6c6c" stroke-width="1.51"/><path d="M223,195L170,272L255,240Z" fill="#454545" stroke="#454545" stroke-width="1.51"/><path d="M173,810L172,906L252,849Z" fill="#9a9a9a" stroke="#9a9a9a" stroke-width="1.51"/><path d="M168,454L224,558L245,506Z" fill="#909090" stroke="#909090" stroke-width="1.51"/><path d="M162,684L209,759L241,695Z" fill="#606060" stroke="#606060" stroke-width="1.51"/><path d="M162,684L147,715L209,759Z" fill="#8f8f8f" stroke="#8f8f8f" stroke-width="1.51"/><path d="M188,32L150,155L212,146Z" fill="#848484" stroke="#848484" stroke-width="1.51"/><path d="M98,75L96,89L150,155Z" fill="#727272" stroke="#727272" stroke-width="1.51"/><path d="M98,75L150,155L188,32Z" fill="#707070" stroke="#707070" stroke-width="1.51"/><path d="M118,633L162,684L204,589Z" fill="#9c9c9c" stroke="#9c9c9c" stroke-width="1.51"/><path d="M212,146L150,155L223,195Z" fill="#a2a2a2" stroke="#a2a2a2" stroke-width="1.51"/><path d="M150,155L170,272L223,195Z" fill="#7d7d7d" stroke="#7d7d7d" stroke-width="1.51"/><path d="M91,571L204,589L224,558Z" fill="#b4b4b4" stroke="#b4b4b4" stroke-width="1.51"/><path d="M168,454L91,571L224,558Z" fill="#a3a3a3" stroke="#a3a3a3" stroke-width="1.51"/><path d="M133,-91L206,-53L224,-102Z" fill="#959595" stroke="#959595" stroke-width="1.51"/><path d="M85,-53L188,32L206,-53Z" fill="#a7a7a7" stroke="#a7a7a7" stroke-width="1.51"/><path d="M190,321L125,410L204,393Z" fill="#747474" stroke="#747474" stroke-width="1.51"/><path d="M133,-91L85,-53L206,-53Z" fill="#a6a6a6" stroke="#a6a6a6" stroke-width="1.51"/><path d="M147,715L173,810L209,759Z" fill="#b7b7b7" stroke="#b7b7b7" stroke-width="1.51"/><path d="M125,410L168,454L204,393Z" fill="#b3b3b3" stroke="#b3b3b3" stroke-width="1.51"/><path d="M91,571L118,633L204,589Z" fill="#7c7c7c" stroke="#7c7c7c" stroke-width="1.51"/><path d="M59,498L91,571L168,454Z" fill="#969696" stroke="#969696" stroke-width="1.51"/><path d="M150,155L77,221L170,272Z" fill="#727272" stroke="#727272" stroke-width="1.51"/><path d="M77,221L122,279L170,272Z" fill="#9f9f9f" stroke="#9f9f9f" stroke-width="1.51"/><path d="M147,715L86,799L173,810Z" fill="#c3c3c3" stroke="#c3c3c3" stroke-width="1.51"/><path d="M110,910L172,906L173,810Z" fill="#7c7c7c" stroke="#7c7c7c" stroke-width="1.51"/><path d="M85,-53L98,75L188,32Z" fill="#b6b6b6" stroke="#b6b6b6" stroke-width="1.51"/><path d="M122,279L83,316L190,321Z" fill="#4d4d4d" stroke="#4d4d4d" stroke-width="1.51"/><path d="M83,316L85,359L190,321Z" fill="#8c8c8c" stroke="#8c8c8c" stroke-width="1.51"/><path d="M85,359L125,410L190,321Z" fill="#8d8d8d" stroke="#8d8d8d" stroke-width="1.51"/><path d="M170,272L122,279L190,321Z" fill="#b2b2b2" stroke="#b2b2b2" stroke-width="1.51"/><path d="M92,438L59,498L168,454Z" fill="#606060" stroke="#606060" stroke-width="1.51"/><path d="M86,799L110,910L173,810Z" fill="#8f8f8f" stroke="#8f8f8f" stroke-width="1.51"/><path d="M125,410L92,438L168,454Z" fill="#6f6f6f" stroke="#6f6f6f" stroke-width="1.51"/><path d="M89,701L147,715L162,684Z" fill="#8c8c8c" stroke="#8c8c8c" stroke-width="1.51"/><path d="M118,633L89,701L162,684Z" fill="#adadad" stroke="#adadad" stroke-width="1.51"/><path d="M89,701L86,799L147,715Z" fill="#828282" stroke="#828282" stroke-width="1.51"/><path d="M96,89L63,120L150,155Z" fill="#717171" stroke="#717171" stroke-width="1.51"/><path d="M63,120L77,221L150,155Z" fill="#8a8a8a" stroke="#8a8a8a" stroke-width="1.51"/><path d="M85,-53L23,-32L98,75Z" fill="#5b5b5b" stroke="#5b5b5b" stroke-width="1.51"/><path d="M86,799L17,845L110,910Z" fill="#666666" stroke="#666666" stroke-width="1.51"/><path d="M17,845L29,900L110,910Z" fill="#414141" stroke="#414141" stroke-width="1.51"/><path d="M53,-107L85,-53L133,-91Z" fill="#676767" stroke="#676767" stroke-width="1.51"/><path d="M42,680L89,701L118,633Z" fill="#7a7a7a" stroke="#7a7a7a" stroke-width="1.51"/><path d="M77,221L49,275L122,279Z" fill="#6d6d6d" stroke="#6d6d6d" stroke-width="1.51"/><path d="M85,359L92,438L125,410Z" fill="#919191" stroke="#919191" stroke-width="1.51"/><path d="M21,741L86,799L89,701Z" fill="#535353" stroke="#535353" stroke-width="1.51"/><path d="M23,-32L17,76L98,75Z" fill="#5a5a5a" stroke="#5a5a5a" stroke-width="1.51"/><path d="M49,275L83,316L122,279Z" fill="#606060" stroke="#606060" stroke-width="1.51"/><path d="M26,635L42,680L118,633Z" fill="#565656" stroke="#565656" stroke-width="1.51"/><path d="M91,571L26,635L118,633Z" fill="#191919" stroke="#191919" stroke-width="1.51"/><path d="M85,359L28,395L92,438Z" fill="#606060" stroke="#606060" stroke-width="1.51"/><path d="M59,498L23,520L91,571Z" fill="#444444" stroke="#444444" stroke-width="1.51"/><path d="M17,76L96,89L98,75Z" fill="#1b1b1b" stroke="#1b1b1b" stroke-width="1.51"/><path d="M63,120L1,224L77,221Z" fill="#676767" stroke="#676767" stroke-width="1.51"/><path d="M23,520L12,553L91,571Z" fill="#535353" stroke="#535353" stroke-width="1.51"/><path d="M17,76L63,120L96,89Z" fill="#333333" stroke="#333333" stroke-width="1.51"/><path d="M42,680L21,741L89,701Z" fill="#4d4d4d" stroke="#4d4d4d" stroke-width="1.51"/><path d="M12,553L26,635L91,571Z" fill="#717171" stroke="#717171" stroke-width="1.51"/><path d="M28,395L59,498L92,438Z" fill="#1b1b1b" stroke="#1b1b1b" stroke-width="1.51"/><path d="M28,395L-17,450L59,498Z" fill="#5e5e5e" stroke="#5e5e5e" stroke-width="1.51"/><path d="M83,316L12,314L85,359Z" fill="#515151" stroke="#515151" stroke-width="1.51"/><path d="M53,-107L23,-32L85,-53Z" fill="#656565" stroke="#656565" stroke-width="1.51"/><path d="M21,741L17,845L86,799Z" fill="#646464" stroke="#646464" stroke-width="1.51"/><path d="M12,314L28,395L85,359Z" fill="#878787" stroke="#878787" stroke-width="1.51"/><path d="M49,275L12,314L83,316Z" fill="#343434" stroke="#343434" stroke-width="1.51"/><path d="M12,101L1,224L63,120Z" fill="#b9b9b9" stroke="#b9b9b9" stroke-width="1.51"/><path d="M1,224L49,275L77,221Z" fill="#555555" stroke="#555555" stroke-width="1.51"/><path d="M-24,771L17,845L21,741Z" fill="#cccccc" stroke="#cccccc" stroke-width="1.51"/><path d="M2,-43L23,-32L53,-107Z" fill="#a6a6a6" stroke="#a6a6a6" stroke-width="1.51"/><path d="M-17,450L23,520L59,498Z" fill="#d8d8d8" stroke="#d8d8d8" stroke-width="1.51"/><path d="M17,76L12,101L63,120Z" fill="#767676" stroke="#767676" stroke-width="1.51"/><path d="M-48,55L17,76L23,-32Z" fill="#a2a2a2" stroke="#a2a2a2" stroke-width="1.51"/><path d="M1,224L-19,263L49,275Z" fill="#bbbbbb" stroke="#bbbbbb" stroke-width="1.51"/><path d="M-33,-120L2,-43L53,-107Z" fill="#9c9c9c" stroke="#9c9c9c" stroke-width="1.51"/><path d="M12,314L-34,372L28,395Z" fill="#ababab" stroke="#ababab" stroke-width="1.51"/><path d="M26,635L-1,671L42,680Z" fill="#d2d2d2" stroke="#d2d2d2" stroke-width="1.51"/><path d="M-1,671L21,741L42,680Z" fill="#b1b1b1" stroke="#b1b1b1" stroke-width="1.51"/><path d="M-19,263L12,314L49,275Z" fill="#dadada" stroke="#dadada" stroke-width="1.51"/><path d="M-73,196L1,224L12,101Z" fill="#9d9d9d" stroke="#9d9d9d" stroke-width="1.51"/><path d="M2,-43L-48,55L23,-32Z" fill="#adadad" stroke="#adadad" stroke-width="1.51"/><path d="M12,553L-35,622L26,635Z" fill="#7b7b7b" stroke="#7b7b7b" stroke-width="1.51"/><path d="M-71,28L-48,55L2,-43Z" fill="#a8a8a8" stroke="#a8a8a8" stroke-width="1.51"/><path d="M-24,771L-44,793L17,845Z" fill="#545454" stroke="#545454" stroke-width="1.51"/><path d="M-34,372L-17,450L28,395Z" fill="#b8b8b8" stroke="#b8b8b8" stroke-width="1.51"/><path d="M17,845L-37,912L29,900Z" fill="#888888" stroke="#888888" stroke-width="1.51"/><path d="M-101,148L-73,196L12,101Z" fill="#a0a0a0" stroke="#a0a0a0" stroke-width="1.51"/><path d="M-1,671L-24,771L21,741Z" fill="#9e9e9e" stroke="#9e9e9e" stroke-width="1.51"/><path d="M-35,622L-1,671L26,635Z" fill="#9d9d9d" stroke="#9d9d9d" stroke-width="1.51"/><path d="M-58,567L-35,622L12,553Z" fill="#898989" stroke="#898989" stroke-width="1.51"/><path d="M-17,450L-88,501L23,520Z" fill="#ababab" stroke="#ababab" stroke-width="1.51"/><path d="M-58,567L12,553L23,520Z" fill="#757575" stroke="#757575" stroke-width="1.51"/><path d="M-88,501L-58,567L23,520Z" fill="#717171" stroke="#717171" stroke-width="1.51"/><path d="M-44,793L-37,912L17,845Z" fill="#a3a3a3" stroke="#a3a3a3" stroke-width="1.51"/><path d="M-48,55L12,101L17,76Z" fill="#636363" stroke="#636363" stroke-width="1.51"/><path d="M-94,668L-24,771L-1,671Z" fill="#747474" stroke="#747474" stroke-width="1.51"/><path d="M-19,263L-58,290L12,314Z" fill="#929292" stroke="#929292" stroke-width="1.51"/><path d="M-58,290L-34,372L12,314Z" fill="#777777" stroke="#777777" stroke-width="1.51"/><path d="M-48,55L-101,148L12,101Z" fill="#6c6c6c" stroke="#6c6c6c" stroke-width="1.51"/><path d="M-88,802L-83,904L-44,793Z" fill="#969696" stroke="#969696" stroke-width="1.51"/><path d="M-44,793L-83,904L-37,912Z" fill="#747474" stroke="#747474" stroke-width="1.51"/><path d="M-115,1L-71,28L2,-43Z" fill="#a7a7a7" stroke="#a7a7a7" stroke-width="1.51"/><path d="M-106,-97L-115,1L2,-43Z" fill="#9a9a9a" stroke="#9a9a9a" stroke-width="1.51"/><path d="M-33,-120L-106,-97L2,-43Z" fill="#808080" stroke="#808080" stroke-width="1.51"/><path d="M-73,196L-19,263L1,224Z" fill="#525252" stroke="#525252" stroke-width="1.51"/><path d="M-35,622L-94,668L-1,671Z" fill="#989898" stroke="#989898" stroke-width="1.51"/><path d="M-58,567L-70,594L-35,622Z" fill="#7a7a7a" stroke="#7a7a7a" stroke-width="1.51"/><path d="M-58,290L-105,345L-34,372Z" fill="#a1a1a1" stroke="#a1a1a1" stroke-width="1.51"/><path d="M-94,668L-111,775L-24,771Z" fill="#adadad" stroke="#adadad" stroke-width="1.51"/><path d="M-73,196L-58,290L-19,263Z" fill="#858585" stroke="#858585" stroke-width="1.51"/><path d="M-34,372L-114,399L-17,450Z" fill="#a5a5a5" stroke="#a5a5a5" stroke-width="1.51"/><path d="M-114,399L-88,501L-17,450Z" fill="#5e5e5e" stroke="#5e5e5e" stroke-width="1.51"/><path d="M-111,775L-44,793L-24,771Z" fill="#c6c6c6" stroke="#c6c6c6" stroke-width="1.51"/><path d="M-111,775L-88,802L-44,793Z" fill="#a3a3a3" stroke="#a3a3a3" stroke-width="1.51"/><path d="M-70,594L-94,668L-35,622Z" fill="#707070" stroke="#707070" stroke-width="1.51"/><path d="M-105,345L-114,399L-34,372Z" fill="#6c6c6c" stroke="#6c6c6c" stroke-width="1.51"/><path d="M-71,28L-101,148L-48,55Z" fill="#666666" stroke="#666666" stroke-width="1.51"/><path d="M-115,1L-101,148L-71,28Z" fill="#333333" stroke="#333333" stroke-width="1.51"/><path d="M-88,501L-70,594L-58,567Z" fill="#919191" stroke="#919191" stroke-width="1.51"/><path d="M-73,196L-105,345L-58,290Z" fill="#d5d5d5" stroke="#d5d5d5" stroke-width="1.51"/><path d="M-101,148L-105,345L-73,196Z" fill="#464646" stroke="#464646" stroke-width="1.51"/><path d="M-88,501L-94,668L-70,594Z" fill="#8d8d8d" stroke="#8d8d8d" stroke-width="1.51"/><path d="M-88,802L-111,775L-83,904Z" fill="#5a5a5a" stroke="#5a5a5a" stroke-width="1.51"/><path d="M-114,399L-94,668L-88,501Z" fill="#5f5f5f" stroke="#5f5f5f" stroke-width="1.51"/><path d="M-114,399L-111,775L-94,668Z" fill="#171717" stroke="#171717" stroke-width="1.51"/><path d="M-114,399L-105,345L-101,148Z" fill="#353535" stroke="#353535" stroke-width="1.51"/><path d="M-115,1L-114,399L-101,148Z" fill="#565656" stroke="#565656" stroke-width="1.51"/></svg>