<svg xmlns="http://www.w3.org/2000/svg" width="200" height="200"><path d="M29,236L-12,236L79,238Z" fill="#b3b3b3" stroke="#b3b3b3" stroke-width="1.51"/><path d="M85,-40L149,-35L166,-40Z" fill="#434343" stroke="#434343" stroke-width="1.51"/><path d="M153,233L105,239L185,239Z" fill="#adadad" stroke="#adadad" stroke-width="1.51"/><path d="M208,229L185,239L221,226Z" fill="#787878" stroke="#787878" stroke-width="1.51"/><path d="M218,190L217,211L226,216Z" fill="#919191" stroke="#919191" stroke-width="1.51"/><path d="M218,190L226,216L226,180Z" fill="#a5a5a5" stroke="#a5a5a5" stroke-width="1.51"/><path d="M166,-40L200,-33L232,-29Z" fill="#808080" stroke="#808080" stroke-width="1.51"/><path d="M224,86L211,110L233,115Z" fill="#a6a6a6" stroke="#a6a6a6" stroke-width="1.51"/><path d="M224,86L233,115L235,76Z" fill="#585858" stroke="#585858" stroke-width="1.51"/><path d="M222,140L227,161L237,130Z" fill="#777777" stroke="#777777" stroke-width="1.51"/><path d="M227,161L226,180L237,130Z" fill="#2f2f2f" stroke="#2f2f2f" stroke-width="1.51"/><path d="M226,180L226,216L237,130Z" fill="#8b8b8b" stroke="#8b8b8b" stroke-width="1.51"/><path d="M235,76L233,115L237,130Z" fill="#8f8f8f" stroke="#8f8f8f" stroke-width="1.51"/><path d="M227,2L219,6L238,37Z" fill="#313131" stroke="#313131" stroke-width="1.51"/><path d="M219,6L212,26L238,37Z" fill="#868686" stroke="#868686" stroke-width="1.51"/><path d="M219,47L230,54L238,37Z" fill="#5e5e5e" stroke="#5e5e5e" stroke-width="1.51"/><path d="M230,54L235,76L238,37Z" fill="#636363" stroke="#636363" stroke-width="1.51"/><path d="M235,76L237,130L238,37Z" fill="#a1a1a1" stroke="#a1a1a1" stroke-width="1.51"/><path d="M232,-29L208,-14L239,-7Z" fill="#5d5d5d" stroke="#5d5d5d" stroke-width="1.51"/><path d="M208,-14L227,2L239,-7Z" fill="#969696" stroke="#969696" stroke-width="1.51"/><path d="M227,2L238,37L239,-7Z" fill="#4e4e4e" stroke="#4e4e4e" stroke-width="1.51"/><path d="M230,54L210,61L235,76Z" fill="#959595" stroke="#959595" stroke-width="1.51"/><path d="M233,115L214,130L237,130Z" fill="#929292" stroke="#929292" stroke-width="1.51"/><path d="M212,26L219,47L238,37Z" fill="#b7b7b7" stroke="#b7b7b7" stroke-width="1.51"/><path d="M214,130L222,140L237,130Z" fill="#797979" stroke="#797979" stroke-width="1.51"/><path d="M211,90L211,110L224,86Z" fill="#696969" stroke="#696969" stroke-width="1.51"/><path d="M222,140L216,155L227,161Z" fill="#919191" stroke="#919191" stroke-width="1.51"/><path d="M210,61L224,86L235,76Z" fill="#505050" stroke="#505050" stroke-width="1.51"/><path d="M217,164L226,180L227,161Z" fill="#a7a7a7" stroke="#a7a7a7" stroke-width="1.51"/><path d="M211,110L214,130L233,115Z" fill="#989898" stroke="#989898" stroke-width="1.51"/><path d="M200,-33L208,-14L232,-29Z" fill="#828282" stroke="#828282" stroke-width="1.51"/><path d="M208,-14L219,6L227,2Z" fill="#c2c2c2" stroke="#c2c2c2" stroke-width="1.51"/><path d="M219,47L210,61L230,54Z" fill="#777777" stroke="#777777" stroke-width="1.51"/><path d="M210,61L211,90L224,86Z" fill="#6a6a6a" stroke="#6a6a6a" stroke-width="1.51"/><path d="M216,155L217,164L227,161Z" fill="#767676" stroke="#767676" stroke-width="1.51"/><path d="M217,211L221,226L226,216Z" fill="#b1b1b1" stroke="#b1b1b1" stroke-width="1.51"/><path d="M217,164L218,190L226,180Z" fill="#b6b6b6" stroke="#b6b6b6" stroke-width="1.51"/><path d="M217,164L186,170L218,190Z" fill="#777777" stroke="#777777" stroke-width="1.51"/><path d="M196,207L217,211L218,190Z" fill="#7a7a7a" stroke="#7a7a7a" stroke-width="1.51"/><path d="M217,211L208,229L221,226Z" fill="#959595" stroke="#959595" stroke-width="1.51"/><path d="M214,130L216,155L222,140Z" fill="#8a8a8a" stroke="#8a8a8a" stroke-width="1.51"/><path d="M212,26L195,48L219,47Z" fill="#565656" stroke="#565656" stroke-width="1.51"/><path d="M166,-40L186,-31L200,-33Z" fill="#414141" stroke="#414141" stroke-width="1.51"/><path d="M214,130L187,153L216,155Z" fill="#888888" stroke="#888888" stroke-width="1.51"/><path d="M195,48L210,61L219,47Z" fill="#282828" stroke="#282828" stroke-width="1.51"/><path d="M191,16L212,26L219,6Z" fill="#292929" stroke="#292929" stroke-width="1.51"/><path d="M208,-14L191,16L219,6Z" fill="#696969" stroke="#696969" stroke-width="1.51"/><path d="M196,207L208,229L217,211Z" fill="#535353" stroke="#535353" stroke-width="1.51"/><path d="M180,188L196,207L218,190Z" fill="#c7c7c7" stroke="#c7c7c7" stroke-width="1.51"/><path d="M186,170L180,188L218,190Z" fill="#838383" stroke="#838383" stroke-width="1.51"/><path d="M210,61L182,70L211,90Z" fill="#868686" stroke="#868686" stroke-width="1.51"/><path d="M216,155L187,153L217,164Z" fill="#202020" stroke="#202020" stroke-width="1.51"/><path d="M187,153L186,170L217,164Z" fill="#909090" stroke="#909090" stroke-width="1.51"/><path d="M192,26L195,48L212,26Z" fill="#d2d2d2" stroke="#d2d2d2" stroke-width="1.51"/><path d="M211,110L190,110L214,130Z" fill="#666666" stroke="#666666" stroke-width="1.51"/><path d="M184,127L187,153L214,130Z" fill="#7d7d7d" stroke="#7d7d7d" stroke-width="1.51"/><path d="M182,-9L191,16L208,-14Z" fill="#c9c9c9" stroke="#c9c9c9" stroke-width="1.51"/><path d="M182,70L179,79L211,90Z" fill="#878787" stroke="#878787" stroke-width="1.51"/><path d="M190,110L211,110L211,90Z" fill="#a7a7a7" stroke="#a7a7a7" stroke-width="1.51"/><path d="M190,110L184,127L214,130Z" fill="#c3c3c3" stroke="#c3c3c3" stroke-width="1.51"/><path d="M182,97L190,110L211,90Z" fill="#b8b8b8" stroke="#b8b8b8" stroke-width="1.51"/><path d="M191,16L192,26L212,26Z" fill="#a4a4a4" stroke="#a4a4a4" stroke-width="1.51"/><path d="M179,79L182,97L211,90Z" fill="#a3a3a3" stroke="#a3a3a3" stroke-width="1.51"/><path d="M195,48L182,70L210,61Z" fill="#9f9f9f" stroke="#9f9f9f" stroke-width="1.51"/><path d="M85,-40L110,-32L149,-35Z" fill="#252525" stroke="#252525" stroke-width="1.51"/><path d="M196,207L185,239L208,229Z" fill="#949494" stroke="#949494" stroke-width="1.51"/><path d="M200,-33L186,-31L208,-14Z" fill="#c5c5c5" stroke="#c5c5c5" stroke-width="1.51"/><path d="M186,-31L182,-9L208,-14Z" fill="#919191" stroke="#919191" stroke-width="1.51"/><path d="M178,180L180,188L186,170Z" fill="#7b7b7b" stroke="#7b7b7b" stroke-width="1.51"/><path d="M177,56L182,70L195,48Z" fill="#626262" stroke="#626262" stroke-width="1.51"/><path d="M162,229L185,239L196,207Z" fill="#6a6a6a" stroke="#6a6a6a" stroke-width="1.51"/><path d="M184,127L175,150L187,153Z" fill="#828282" stroke="#828282" stroke-width="1.51"/><path d="M192,26L174,34L195,48Z" fill="#a9a9a9" stroke="#a9a9a9" stroke-width="1.51"/><path d="M180,188L168,200L196,207Z" fill="#a0a0a0" stroke="#a0a0a0" stroke-width="1.51"/><path d="M168,200L162,229L196,207Z" fill="#818181" stroke="#818181" stroke-width="1.51"/><path d="M174,34L177,56L195,48Z" fill="#696969" stroke="#696969" stroke-width="1.51"/><path d="M177,167L186,170L187,153Z" fill="#626262" stroke="#626262" stroke-width="1.51"/><path d="M182,-9L165,14L191,16Z" fill="#616161" stroke="#616161" stroke-width="1.51"/><path d="M191,16L174,34L192,26Z" fill="#7a7a7a" stroke="#7a7a7a" stroke-width="1.51"/><path d="M172,107L184,127L190,110Z" fill="#444444" stroke="#444444" stroke-width="1.51"/><path d="M165,14L174,34L191,16Z" fill="#8f8f8f" stroke="#8f8f8f" stroke-width="1.51"/><path d="M182,97L172,107L190,110Z" fill="#838383" stroke="#838383" stroke-width="1.51"/><path d="M162,229L153,233L185,239Z" fill="#9a9a9a" stroke="#9a9a9a" stroke-width="1.51"/><path d="M161,-12L182,-9L186,-31Z" fill="#9e9e9e" stroke="#9e9e9e" stroke-width="1.51"/><path d="M166,-40L161,-12L186,-31Z" fill="#c7c7c7" stroke="#c7c7c7" stroke-width="1.51"/><path d="M175,150L177,167L187,153Z" fill="#484848" stroke="#484848" stroke-width="1.51"/><path d="M59,235L29,236L79,238Z" fill="#6e6e6e" stroke="#6e6e6e" stroke-width="1.51"/><path d="M172,107L160,120L184,127Z" fill="#a2a2a2" stroke="#a2a2a2" stroke-width="1.51"/><path d="M177,167L178,180L186,170Z" fill="#a6a6a6" stroke="#a6a6a6" stroke-width="1.51"/><path d="M160,120L175,150L184,127Z" fill="#aeaeae" stroke="#aeaeae" stroke-width="1.51"/><path d="M154,215L162,229L168,200Z" fill="#5b5b5b" stroke="#5b5b5b" stroke-width="1.51"/><path d="M179,79L161,85L182,97Z" fill="#cbcbcb" stroke="#cbcbcb" stroke-width="1.51"/><path d="M161,-12L165,14L182,-9Z" fill="#d8d8d8" stroke="#d8d8d8" stroke-width="1.51"/><path d="M161,85L172,107L182,97Z" fill="#a3a3a3" stroke="#a3a3a3" stroke-width="1.51"/><path d="M159,58L179,79L182,70Z" fill="#d5d5d5" stroke="#d5d5d5" stroke-width="1.51"/><path d="M177,56L159,58L182,70Z" fill="#bdbdbd" stroke="#bdbdbd" stroke-width="1.51"/><path d="M160,120L147,138L175,150Z" fill="#474747" stroke="#474747" stroke-width="1.51"/><path d="M147,138L151,148L175,150Z" fill="#5e5e5e" stroke="#5e5e5e" stroke-width="1.51"/><path d="M174,34L159,58L177,56Z" fill="#999999" stroke="#999999" stroke-width="1.51"/><path d="M159,58L161,85L179,79Z" fill="#595959" stroke="#595959" stroke-width="1.51"/><path d="M178,180L168,200L180,188Z" fill="#afafaf" stroke="#afafaf" stroke-width="1.51"/><path d="M161,85L155,99L172,107Z" fill="#727272" stroke="#727272" stroke-width="1.51"/><path d="M165,14L158,27L174,34Z" fill="#8b8b8b" stroke="#8b8b8b" stroke-width="1.51"/><path d="M175,150L151,148L177,167Z" fill="#6d6d6d" stroke="#6d6d6d" stroke-width="1.51"/><path d="M143,184L168,200L178,180Z" fill="#787878" stroke="#787878" stroke-width="1.51"/><path d="M177,167L143,176L178,180Z" fill="#b2b2b2" stroke="#b2b2b2" stroke-width="1.51"/><path d="M143,176L143,184L178,180Z" fill="#595959" stroke="#595959" stroke-width="1.51"/><path d="M151,148L143,176L177,167Z" fill="#3c3c3c" stroke="#3c3c3c" stroke-width="1.51"/><path d="M149,-35L161,-12L166,-40Z" fill="#555555" stroke="#555555" stroke-width="1.51"/><path d="M158,27L159,58L174,34Z" fill="#929292" stroke="#929292" stroke-width="1.51"/><path d="M155,99L160,120L172,107Z" fill="#595959" stroke="#595959" stroke-width="1.51"/><path d="M158,27L137,51L159,58Z" fill="#777777" stroke="#777777" stroke-width="1.51"/><path d="M155,99L149,110L160,120Z" fill="#3b3b3b" stroke="#3b3b3b" stroke-width="1.51"/><path d="M159,58L144,76L161,85Z" fill="#383838" stroke="#383838" stroke-width="1.51"/><path d="M143,-6L141,1L161,-12Z" fill="#b0b0b0" stroke="#b0b0b0" stroke-width="1.51"/><path d="M161,-12L141,1L165,14Z" fill="#5f5f5f" stroke="#5f5f5f" stroke-width="1.51"/><path d="M143,184L154,215L168,200Z" fill="#858585" stroke="#858585" stroke-width="1.51"/><path d="M120,228L105,239L153,233Z" fill="#c0c0c0" stroke="#c0c0c0" stroke-width="1.51"/><path d="M141,1L139,8L165,14Z" fill="#636363" stroke="#636363" stroke-width="1.51"/><path d="M139,8L158,27L165,14Z" fill="#3a3a3a" stroke="#3a3a3a" stroke-width="1.51"/><path d="M133,-22L143,-6L149,-35Z" fill="#838383" stroke="#838383" stroke-width="1.51"/><path d="M135,26L137,51L158,27Z" fill="#b8b8b8" stroke="#b8b8b8" stroke-width="1.51"/><path d="M149,-35L143,-6L161,-12Z" fill="#7b7b7b" stroke="#7b7b7b" stroke-width="1.51"/><path d="M154,215L153,233L162,229Z" fill="#353535" stroke="#353535" stroke-width="1.51"/><path d="M144,76L155,99L161,85Z" fill="#878787" stroke="#878787" stroke-width="1.51"/><path d="M139,8L135,26L158,27Z" fill="#878787" stroke="#878787" stroke-width="1.51"/><path d="M149,110L137,117L160,120Z" fill="#6a6a6a" stroke="#6a6a6a" stroke-width="1.51"/><path d="M137,117L147,138L160,120Z" fill="#cacaca" stroke="#cacaca" stroke-width="1.51"/><path d="M137,51L144,76L159,58Z" fill="#aeaeae" stroke="#aeaeae" stroke-width="1.51"/><path d="M130,156L143,176L151,148Z" fill="#535353" stroke="#535353" stroke-width="1.51"/><path d="M143,184L137,184L154,215Z" fill="#bdbdbd" stroke="#bdbdbd" stroke-width="1.51"/><path d="M137,184L121,214L154,215Z" fill="#656565" stroke="#656565" stroke-width="1.51"/><path d="M120,228L153,233L154,215Z" fill="#757575" stroke="#757575" stroke-width="1.51"/><path d="M121,214L120,228L154,215Z" fill="#a5a5a5" stroke="#a5a5a5" stroke-width="1.51"/><path d="M120,80L149,110L155,99Z" fill="#747474" stroke="#747474" stroke-width="1.51"/><path d="M144,76L120,80L155,99Z" fill="#818181" stroke="#818181" stroke-width="1.51"/><path d="M120,80L118,82L149,110Z" fill="#9c9c9c" stroke="#9c9c9c" stroke-width="1.51"/><path d="M118,82L137,117L149,110Z" fill="#8c8c8c" stroke="#8c8c8c" stroke-width="1.51"/><path d="M3,-38L21,-33L74,-36Z" fill="#666666" stroke="#666666" stroke-width="1.51"/><path d="M3,-38L74,-36L85,-40Z" fill="#242424" stroke="#242424" stroke-width="1.51"/><path d="M147,138L130,156L151,148Z" fill="#9e9e9e" stroke="#9e9e9e" stroke-width="1.51"/><path d="M137,51L125,69L144,76Z" fill="#999999" stroke="#999999" stroke-width="1.51"/><path d="M137,117L124,136L147,138Z" fill="#7e7e7e" stroke="#7e7e7e" stroke-width="1.51"/><path d="M110,-32L133,-22L149,-35Z" fill="#969696" stroke="#969696" stroke-width="1.51"/><path d="M130,156L134,179L143,176Z" fill="#969696" stroke="#969696" stroke-width="1.51"/><path d="M124,136L130,156L147,138Z" fill="#8e8e8e" stroke="#8e8e8e" stroke-width="1.51"/><path d="M137,184L143,184L143,176Z" fill="#6b6b6b" stroke="#6b6b6b" stroke-width="1.51"/><path d="M134,179L137,184L143,176Z" fill="#5b5b5b" stroke="#5b5b5b" stroke-width="1.51"/><path d="M133,-22L130,-8L143,-6Z" fill="#717171" stroke="#717171" stroke-width="1.51"/><path d="M125,69L120,80L144,76Z" fill="#5f5f5f" stroke="#5f5f5f" stroke-width="1.51"/><path d="M130,-8L141,1L143,-6Z" fill="#7d7d7d" stroke="#7d7d7d" stroke-width="1.51"/><path d="M106,198L121,214L137,184Z" fill="#c8c8c8" stroke="#c8c8c8" stroke-width="1.51"/><path d="M118,82L103,117L137,117Z" fill="#949494" stroke="#949494" stroke-width="1.51"/><path d="M130,-8L139,8L141,1Z" fill="#7b7b7b" stroke="#7b7b7b" stroke-width="1.51"/><path d="M111,22L106,49L135,26Z" fill="#8a8a8a" stroke="#8a8a8a" stroke-width="1.51"/><path d="M135,26L106,49L137,51Z" fill="#c5c5c5" stroke="#c5c5c5" stroke-width="1.51"/><path d="M130,-8L108,11L139,8Z" fill="#b1b1b1" stroke="#b1b1b1" stroke-width="1.51"/><path d="M111,22L135,26L139,8Z" fill="#888888" stroke="#888888" stroke-width="1.51"/><path d="M108,11L111,22L139,8Z" fill="#535353" stroke="#535353" stroke-width="1.51"/><path d="M130,156L109,173L134,179Z" fill="#dddddd" stroke="#dddddd" stroke-width="1.51"/><path d="M134,179L106,198L137,184Z" fill="#bbbbbb" stroke="#bbbbbb" stroke-width="1.51"/><path d="M103,117L124,136L137,117Z" fill="#c5c5c5" stroke="#c5c5c5" stroke-width="1.51"/><path d="M112,64L125,69L137,51Z" fill="#cbcbcb" stroke="#cbcbcb" stroke-width="1.51"/><path d="M106,49L112,64L137,51Z" fill="#555555" stroke="#555555" stroke-width="1.51"/><path d="M110,-32L116,-18L133,-22Z" fill="#9c9c9c" stroke="#9c9c9c" stroke-width="1.51"/><path d="M109,173L106,198L134,179Z" fill="#535353" stroke="#535353" stroke-width="1.51"/><path d="M116,-18L130,-8L133,-22Z" fill="#b0b0b0" stroke="#b0b0b0" stroke-width="1.51"/><path d="M103,117L102,126L124,136Z" fill="#949494" stroke="#949494" stroke-width="1.51"/><path d="M124,136L100,150L130,156Z" fill="#8c8c8c" stroke="#8c8c8c" stroke-width="1.51"/><path d="M100,150L109,173L130,156Z" fill="#1c1c1c" stroke="#1c1c1c" stroke-width="1.51"/><path d="M116,-18L108,11L130,-8Z" fill="#9e9e9e" stroke="#9e9e9e" stroke-width="1.51"/><path d="M97,-8L108,11L116,-18Z" fill="#a3a3a3" stroke="#a3a3a3" stroke-width="1.51"/><path d="M112,64L120,80L125,69Z" fill="#888888" stroke="#888888" stroke-width="1.51"/><path d="M100,150L97,162L109,173Z" fill="#858585" stroke="#858585" stroke-width="1.51"/><path d="M102,126L100,150L124,136Z" fill="#494949" stroke="#494949" stroke-width="1.51"/><path d="M81,94L95,116L103,117Z" fill="#484848" stroke="#484848" stroke-width="1.51"/><path d="M97,190L106,198L109,173Z" fill="#929292" stroke="#929292" stroke-width="1.51"/><path d="M81,94L103,117L118,82Z" fill="#b2b2b2" stroke="#b2b2b2" stroke-width="1.51"/><path d="M99,205L92,231L120,228Z" fill="#b8b8b8" stroke="#b8b8b8" stroke-width="1.51"/><path d="M112,64L118,82L120,80Z" fill="#363636" stroke="#363636" stroke-width="1.51"/><path d="M99,205L120,228L121,214Z" fill="#444444" stroke="#444444" stroke-width="1.51"/><path d="M106,198L99,205L121,214Z" fill="#5a5a5a" stroke="#5a5a5a" stroke-width="1.51"/><path d="M92,231L105,239L120,228Z" fill="#8a8a8a" stroke="#8a8a8a" stroke-width="1.51"/><path d="M97,67L81,94L118,82Z" fill="#9f9f9f" stroke="#9f9f9f" stroke-width="1.51"/><path d="M112,64L97,67L118,82Z" fill="#6b6b6b" stroke="#6b6b6b" stroke-width="1.51"/><path d="M110,-32L97,-8L116,-18Z" fill="#777777" stroke="#777777" stroke-width="1.51"/><path d="M95,128L100,150L102,126Z" fill="#8f8f8f" stroke="#8f8f8f" stroke-width="1.51"/><path d="M82,32L106,49L111,22Z" fill="#cacaca" stroke="#cacaca" stroke-width="1.51"/><path d="M106,49L97,67L112,64Z" fill="#939393" stroke="#939393" stroke-width="1.51"/><path d="M85,-40L97,-8L110,-32Z" fill="#a4a4a4" stroke="#a4a4a4" stroke-width="1.51"/><path d="M108,11L84,14L111,22Z" fill="#777777" stroke="#777777" stroke-width="1.51"/><path d="M84,14L82,32L111,22Z" fill="#606060" stroke="#606060" stroke-width="1.51"/><path d="M100,200L99,205L106,198Z" fill="#dcdcdc" stroke="#dcdcdc" stroke-width="1.51"/><path d="M97,-8L84,14L108,11Z" fill="#5f5f5f" stroke="#5f5f5f" stroke-width="1.51"/><path d="M97,162L97,190L109,173Z" fill="#cacaca" stroke="#cacaca" stroke-width="1.51"/><path d="M87,58L97,67L106,49Z" fill="#6d6d6d" stroke="#6d6d6d" stroke-width="1.51"/><path d="M92,231L79,238L105,239Z" fill="#808080" stroke="#808080" stroke-width="1.51"/><path d="M97,190L100,200L106,198Z" fill="#c6c6c6" stroke="#c6c6c6" stroke-width="1.51"/><path d="M82,32L87,58L106,49Z" fill="#686868" stroke="#686868" stroke-width="1.51"/><path d="M72,75L81,94L97,67Z" fill="#7e7e7e" stroke="#7e7e7e" stroke-width="1.51"/><path d="M85,-40L74,-36L97,-8Z" fill="#b3b3b3" stroke="#b3b3b3" stroke-width="1.51"/><path d="M75,216L92,231L99,205Z" fill="#9f9f9f" stroke="#9f9f9f" stroke-width="1.51"/><path d="M95,128L85,154L100,150Z" fill="#757575" stroke="#757575" stroke-width="1.51"/><path d="M95,116L95,128L102,126Z" fill="#b1b1b1" stroke="#b1b1b1" stroke-width="1.51"/><path d="M95,116L102,126L103,117Z" fill="#b6b6b6" stroke="#b6b6b6" stroke-width="1.51"/><path d="M68,164L97,190L97,162Z" fill="#cfcfcf" stroke="#cfcfcf" stroke-width="1.51"/><path d="M68,164L71,197L97,190Z" fill="#5a5a5a" stroke="#5a5a5a" stroke-width="1.51"/><path d="M71,197L99,205L100,200Z" fill="#bbbbbb" stroke="#bbbbbb" stroke-width="1.51"/><path d="M97,190L71,197L100,200Z" fill="#aaaaaa" stroke="#aaaaaa" stroke-width="1.51"/><path d="M85,154L97,162L100,150Z" fill="#313131" stroke="#313131" stroke-width="1.51"/><path d="M85,154L68,164L97,162Z" fill="#686868" stroke="#686868" stroke-width="1.51"/><path d="M74,-36L62,-9L97,-8Z" fill="#5f5f5f" stroke="#5f5f5f" stroke-width="1.51"/><path d="M71,197L75,216L99,205Z" fill="#717171" stroke="#717171" stroke-width="1.51"/><path d="M73,124L85,154L95,128Z" fill="#838383" stroke="#838383" stroke-width="1.51"/><path d="M81,94L71,104L95,116Z" fill="#9c9c9c" stroke="#9c9c9c" stroke-width="1.51"/><path d="M87,58L72,75L97,67Z" fill="#d2d2d2" stroke="#d2d2d2" stroke-width="1.51"/><path d="M75,12L84,14L97,-8Z" fill="#7d7d7d" stroke="#7d7d7d" stroke-width="1.51"/><path d="M62,-9L75,12L97,-8Z" fill="#939393" stroke="#939393" stroke-width="1.51"/><path d="M72,75L75,91L81,94Z" fill="#717171" stroke="#717171" stroke-width="1.51"/><path d="M73,124L95,128L95,116Z" fill="#c6c6c6" stroke="#c6c6c6" stroke-width="1.51"/><path d="M71,104L73,124L95,116Z" fill="#4c4c4c" stroke="#4c4c4c" stroke-width="1.51"/><path d="M73,124L66,150L85,154Z" fill="#4c4c4c" stroke="#4c4c4c" stroke-width="1.51"/><path d="M82,32L64,54L87,58Z" fill="#555555" stroke="#555555" stroke-width="1.51"/><path d="M75,216L79,238L92,231Z" fill="#696969" stroke="#696969" stroke-width="1.51"/><path d="M57,-20L62,-9L74,-36Z" fill="#aeaeae" stroke="#aeaeae" stroke-width="1.51"/><path d="M59,46L64,54L82,32Z" fill="#bcbcbc" stroke="#bcbcbc" stroke-width="1.51"/><path d="M75,12L82,32L84,14Z" fill="#676767" stroke="#676767" stroke-width="1.51"/><path d="M64,54L72,75L87,58Z" fill="#5e5e5e" stroke="#5e5e5e" stroke-width="1.51"/><path d="M68,164L54,188L71,197Z" fill="#909090" stroke="#909090" stroke-width="1.51"/><path d="M75,12L65,27L82,32Z" fill="#494949" stroke="#494949" stroke-width="1.51"/><path d="M66,150L68,164L85,154Z" fill="#2c2c2c" stroke="#2c2c2c" stroke-width="1.51"/><path d="M59,131L66,150L73,124Z" fill="#a0a0a0" stroke="#a0a0a0" stroke-width="1.51"/><path d="M21,-33L41,-24L74,-36Z" fill="#6f6f6f" stroke="#6f6f6f" stroke-width="1.51"/><path d="M65,27L59,46L82,32Z" fill="#dbdbdb" stroke="#dbdbdb" stroke-width="1.51"/><path d="M75,216L59,235L79,238Z" fill="#6c6c6c" stroke="#6c6c6c" stroke-width="1.51"/><path d="M75,91L71,104L81,94Z" fill="#474747" stroke="#474747" stroke-width="1.51"/><path d="M64,54L54,60L72,75Z" fill="#c3c3c3" stroke="#c3c3c3" stroke-width="1.51"/><path d="M71,104L56,117L73,124Z" fill="#898989" stroke="#898989" stroke-width="1.51"/><path d="M71,197L43,205L75,216Z" fill="#878787" stroke="#878787" stroke-width="1.51"/><path d="M43,205L59,235L75,216Z" fill="#909090" stroke="#909090" stroke-width="1.51"/><path d="M72,75L49,85L75,91Z" fill="#c2c2c2" stroke="#c2c2c2" stroke-width="1.51"/><path d="M49,85L71,104L75,91Z" fill="#838383" stroke="#838383" stroke-width="1.51"/><path d="M40,4L65,27L75,12Z" fill="#545454" stroke="#545454" stroke-width="1.51"/><path d="M62,-9L40,4L75,12Z" fill="#7e7e7e" stroke="#7e7e7e" stroke-width="1.51"/><path d="M50,167L54,188L68,164Z" fill="#8e8e8e" stroke="#8e8e8e" stroke-width="1.51"/><path d="M41,-24L57,-20L74,-36Z" fill="#848484" stroke="#848484" stroke-width="1.51"/><path d="M56,117L59,131L73,124Z" fill="#d0d0d0" stroke="#d0d0d0" stroke-width="1.51"/><path d="M54,60L49,85L72,75Z" fill="#4b4b4b" stroke="#4b4b4b" stroke-width="1.51"/><path d="M49,85L38,100L56,117Z" fill="#9a9a9a" stroke="#9a9a9a" stroke-width="1.51"/><path d="M54,188L43,205L71,197Z" fill="#7c7c7c" stroke="#7c7c7c" stroke-width="1.51"/><path d="M49,85L56,117L71,104Z" fill="#959595" stroke="#959595" stroke-width="1.51"/><path d="M47,35L59,46L65,27Z" fill="#8e8e8e" stroke="#8e8e8e" stroke-width="1.51"/><path d="M66,150L50,167L68,164Z" fill="#6d6d6d" stroke="#6d6d6d" stroke-width="1.51"/><path d="M40,4L47,35L65,27Z" fill="#5d5d5d" stroke="#5d5d5d" stroke-width="1.51"/><path d="M59,131L44,153L66,150Z" fill="#7e7e7e" stroke="#7e7e7e" stroke-width="1.51"/><path d="M44,153L50,167L66,150Z" fill="#262626" stroke="#262626" stroke-width="1.51"/><path d="M59,46L54,60L64,54Z" fill="#575757" stroke="#575757" stroke-width="1.51"/><path d="M43,205L29,236L59,235Z" fill="#727272" stroke="#727272" stroke-width="1.51"/><path d="M57,-20L40,4L62,-9Z" fill="#757575" stroke="#757575" stroke-width="1.51"/><path d="M40,4L33,29L47,35Z" fill="#8f8f8f" stroke="#8f8f8f" stroke-width="1.51"/><path d="M41,-24L40,4L57,-20Z" fill="#777777" stroke="#777777" stroke-width="1.51"/><path d="M56,117L30,135L59,131Z" fill="#9c9c9c" stroke="#9c9c9c" stroke-width="1.51"/><path d="M30,135L44,153L59,131Z" fill="#686868" stroke="#686868" stroke-width="1.51"/><path d="M47,35L54,60L59,46Z" fill="#545454" stroke="#545454" stroke-width="1.51"/><path d="M50,167L31,172L54,188Z" fill="#a1a1a1" stroke="#a1a1a1" stroke-width="1.51"/><path d="M23,77L49,85L54,60Z" fill="#555555" stroke="#555555" stroke-width="1.51"/><path d="M38,100L30,135L56,117Z" fill="#808080" stroke="#808080" stroke-width="1.51"/><path d="M21,219L29,236L43,205Z" fill="#b5b5b5" stroke="#b5b5b5" stroke-width="1.51"/><path d="M22,180L43,205L54,188Z" fill="#a9a9a9" stroke="#a9a9a9" stroke-width="1.51"/><path d="M31,172L22,180L54,188Z" fill="#a9a9a9" stroke="#a9a9a9" stroke-width="1.51"/><path d="M47,35L20,40L54,60Z" fill="#939393" stroke="#939393" stroke-width="1.51"/><path d="M20,40L23,77L54,60Z" fill="#939393" stroke="#939393" stroke-width="1.51"/><path d="M19,126L30,135L38,100Z" fill="#9d9d9d" stroke="#9d9d9d" stroke-width="1.51"/><path d="M33,29L20,40L47,35Z" fill="#c3c3c3" stroke="#c3c3c3" stroke-width="1.51"/><path d="M23,77L23,81L49,85Z" fill="#9d9d9d" stroke="#9d9d9d" stroke-width="1.51"/><path d="M44,153L31,172L50,167Z" fill="#898989" stroke="#898989" stroke-width="1.51"/><path d="M24,12L33,29L40,4Z" fill="#6a6a6a" stroke="#6a6a6a" stroke-width="1.51"/><path d="M20,-3L40,4L41,-24Z" fill="#bbbbbb" stroke="#bbbbbb" stroke-width="1.51"/><path d="M23,81L38,100L49,85Z" fill="#bfbfbf" stroke="#bfbfbf" stroke-width="1.51"/><path d="M20,40L13,70L23,77Z" fill="#7e7e7e" stroke="#7e7e7e" stroke-width="1.51"/><path d="M7,230L-12,236L29,236Z" fill="#5e5e5e" stroke="#5e5e5e" stroke-width="1.51"/><path d="M20,158L31,172L44,153Z" fill="#767676" stroke="#767676" stroke-width="1.51"/><path d="M30,135L20,158L44,153Z" fill="#a1a1a1" stroke="#a1a1a1" stroke-width="1.51"/><path d="M17,99L19,126L38,100Z" fill="#707070" stroke="#707070" stroke-width="1.51"/><path d="M22,180L21,219L43,205Z" fill="#c7c7c7" stroke="#c7c7c7" stroke-width="1.51"/><path d="M21,-33L20,-3L41,-24Z" fill="#898989" stroke="#898989" stroke-width="1.51"/><path d="M23,81L17,99L38,100Z" fill="#5f5f5f" stroke="#5f5f5f" stroke-width="1.51"/><path d="M20,-3L24,12L40,4Z" fill="#797979" stroke="#797979" stroke-width="1.51"/><path d="M17,99L9,114L19,126Z" fill="#1a1a1a" stroke="#1a1a1a" stroke-width="1.51"/><path d="M2,184L-5,207L3,217Z" fill="#cacaca" stroke="#cacaca" stroke-width="1.51"/><path d="M2,184L3,217L21,219Z" fill="#2e2e2e" stroke="#2e2e2e" stroke-width="1.51"/><path d="M2,184L21,219L22,180Z" fill="#6a6a6a" stroke="#6a6a6a" stroke-width="1.51"/><path d="M24,12L20,40L33,29Z" fill="#8a8a8a" stroke="#8a8a8a" stroke-width="1.51"/><path d="M2,26L20,40L24,12Z" fill="#575757" stroke="#575757" stroke-width="1.51"/><path d="M3,148L20,158L30,135Z" fill="#727272" stroke="#727272" stroke-width="1.51"/><path d="M19,126L3,148L30,135Z" fill="#444444" stroke="#444444" stroke-width="1.51"/><path d="M20,158L22,180L31,172Z" fill="#acacac" stroke="#acacac" stroke-width="1.51"/><path d="M0,57L13,70L20,40Z" fill="#1c1c1c" stroke="#1c1c1c" stroke-width="1.51"/><path d="M5,-4L20,-3L21,-33Z" fill="#515151" stroke="#515151" stroke-width="1.51"/><path d="M20,158L12,178L22,180Z" fill="#878787" stroke="#878787" stroke-width="1.51"/><path d="M21,219L7,230L29,236Z" fill="#454545" stroke="#454545" stroke-width="1.51"/><path d="M12,178L2,184L22,180Z" fill="#3f3f3f" stroke="#3f3f3f" stroke-width="1.51"/><path d="M-1,44L0,57L20,40Z" fill="#575757" stroke="#575757" stroke-width="1.51"/><path d="M-8,-26L5,-4L21,-33Z" fill="#666666" stroke="#666666" stroke-width="1.51"/><path d="M3,-38L-8,-26L21,-33Z" fill="#4b4b4b" stroke="#4b4b4b" stroke-width="1.51"/><path d="M10,5L2,26L24,12Z" fill="#1a1a1a" stroke="#1a1a1a" stroke-width="1.51"/><path d="M20,-3L10,5L24,12Z" fill="#4d4d4d" stroke="#4d4d4d" stroke-width="1.51"/><path d="M-4,79L17,99L23,81Z" fill="#626262" stroke="#626262" stroke-width="1.51"/><path d="M13,70L-4,79L23,81Z" fill="#1d1d1d" stroke="#1d1d1d" stroke-width="1.51"/><path d="M13,70L23,81L23,77Z" fill="#3b3b3b" stroke="#3b3b3b" stroke-width="1.51"/><path d="M-1,173L12,178L20,158Z" fill="#6a6a6a" stroke="#6a6a6a" stroke-width="1.51"/><path d="M3,217L7,230L21,219Z" fill="#5b5b5b" stroke="#5b5b5b" stroke-width="1.51"/><path d="M3,148L-1,173L20,158Z" fill="#303030" stroke="#303030" stroke-width="1.51"/><path d="M2,26L-1,44L20,40Z" fill="#838383" stroke="#838383" stroke-width="1.51"/><path d="M5,-4L10,5L20,-3Z" fill="#646464" stroke="#646464" stroke-width="1.51"/><path d="M-14,122L-9,144L9,114Z" fill="#dcdcdc" stroke="#dcdcdc" stroke-width="1.51"/><path d="M-10,91L-1,105L17,99Z" fill="#9b9b9b" stroke="#9b9b9b" stroke-width="1.51"/><path d="M-4,79L-10,91L17,99Z" fill="#9a9a9a" stroke="#9a9a9a" stroke-width="1.51"/><path d="M9,114L-9,144L19,126Z" fill="#878787" stroke="#878787" stroke-width="1.51"/><path d="M-9,144L3,148L19,126Z" fill="#535353" stroke="#535353" stroke-width="1.51"/><path d="M-1,105L9,114L17,99Z" fill="#595959" stroke="#595959" stroke-width="1.51"/><path d="M-4,3L2,26L10,5Z" fill="#424242" stroke="#424242" stroke-width="1.51"/><path d="M0,57L-4,79L13,70Z" fill="#b0b0b0" stroke="#b0b0b0" stroke-width="1.51"/><path d="M-1,173L2,184L12,178Z" fill="#7e7e7e" stroke="#7e7e7e" stroke-width="1.51"/><path d="M-8,-26L-14,-19L5,-4Z" fill="#9d9d9d" stroke="#9d9d9d" stroke-width="1.51"/><path d="M5,-4L-4,3L10,5Z" fill="#858585" stroke="#858585" stroke-width="1.51"/><path d="M-15,193L-5,207L2,184Z" fill="#bdbdbd" stroke="#bdbdbd" stroke-width="1.51"/><path d="M-1,105L-14,122L9,114Z" fill="#767676" stroke="#767676" stroke-width="1.51"/><path d="M-21,157L-1,173L3,148Z" fill="#6f6f6f" stroke="#6f6f6f" stroke-width="1.51"/><path d="M-9,144L-21,157L3,148Z" fill="#9a9a9a" stroke="#9a9a9a" stroke-width="1.51"/><path d="M3,217L-12,236L7,230Z" fill="#7b7b7b" stroke="#7b7b7b" stroke-width="1.51"/><path d="M-14,-19L-4,3L5,-4Z" fill="#c7c7c7" stroke="#c7c7c7" stroke-width="1.51"/><path d="M-21,78L-4,79L0,57Z" fill="#959595" stroke="#959595" stroke-width="1.51"/><path d="M-18,31L-1,44L2,26Z" fill="#c3c3c3" stroke="#c3c3c3" stroke-width="1.51"/><path d="M-4,3L-18,31L2,26Z" fill="#888888" stroke="#888888" stroke-width="1.51"/><path d="M-5,207L-12,236L3,217Z" fill="#c8c8c8" stroke="#c8c8c8" stroke-width="1.51"/><path d="M-35,-32L-8,-26L3,-38Z" fill="#646464" stroke="#646464" stroke-width="1.51"/><path d="M-1,173L-15,193L2,184Z" fill="#919191" stroke="#919191" stroke-width="1.51"/><path d="M-30,225L-12,236L-5,207Z" fill="#898989" stroke="#898989" stroke-width="1.51"/><path d="M-25,3L-18,31L-4,3Z" fill="#404040" stroke="#404040" stroke-width="1.51"/><path d="M-21,157L-25,165L-1,173Z" fill="#7d7d7d" stroke="#7d7d7d" stroke-width="1.51"/><path d="M-26,51L-21,78L0,57Z" fill="#939393" stroke="#939393" stroke-width="1.51"/><path d="M-1,44L-26,51L0,57Z" fill="#7c7c7c" stroke="#7c7c7c" stroke-width="1.51"/><path d="M-14,-19L-25,3L-4,3Z" fill="#9f9f9f" stroke="#9f9f9f" stroke-width="1.51"/><path d="M-25,165L-15,193L-1,173Z" fill="#979797" stroke="#979797" stroke-width="1.51"/><path d="M-10,91L-14,122L-1,105Z" fill="#a0a0a0" stroke="#a0a0a0" stroke-width="1.51"/><path d="M-18,31L-26,51L-1,44Z" fill="#838383" stroke="#838383" stroke-width="1.51"/><path d="M-37,109L-14,122L-10,91Z" fill="#7d7d7d" stroke="#7d7d7d" stroke-width="1.51"/><path d="M-21,78L-10,91L-4,79Z" fill="#949494" stroke="#949494" stroke-width="1.51"/><path d="M-25,165L-32,186L-15,193Z" fill="#858585" stroke="#858585" stroke-width="1.51"/><path d="M-35,94L-37,109L-10,91Z" fill="#afafaf" stroke="#afafaf" stroke-width="1.51"/><path d="M-14,122L-30,139L-9,144Z" fill="#6d6d6d" stroke="#6d6d6d" stroke-width="1.51"/><path d="M-15,193L-36,217L-5,207Z" fill="#6d6d6d" stroke="#6d6d6d" stroke-width="1.51"/><path d="M-36,217L-30,225L-5,207Z" fill="#939393" stroke="#939393" stroke-width="1.51"/><path d="M-35,-32L-14,-19L-8,-26Z" fill="#989898" stroke="#989898" stroke-width="1.51"/><path d="M-30,139L-21,157L-9,144Z" fill="#989898" stroke="#989898" stroke-width="1.51"/><path d="M-21,78L-35,94L-10,91Z" fill="#a9a9a9" stroke="#a9a9a9" stroke-width="1.51"/><path d="M-33,38L-26,51L-18,31Z" fill="#b0b0b0" stroke="#b0b0b0" stroke-width="1.51"/><path d="M-37,-4L-25,3L-14,-19Z" fill="#b6b6b6" stroke="#b6b6b6" stroke-width="1.51"/><path d="M-32,186L-36,217L-15,193Z" fill="#cacaca" stroke="#cacaca" stroke-width="1.51"/><path d="M-37,109L-30,139L-14,122Z" fill="#cacaca" stroke="#cacaca" stroke-width="1.51"/><path d="M-35,-32L-37,-4L-14,-19Z" fill="#8d8d8d" stroke="#8d8d8d" stroke-width="1.51"/><path d="M-25,3L-33,38L-18,31Z" fill="#969696" stroke="#969696" stroke-width="1.51"/><path d="M-37,-4L-33,38L-25,3Z" fill="#323232" stroke="#323232" stroke-width="1.51"/><path d="M-30,139L-25,165L-21,157Z" fill="#797979" stroke="#797979" stroke-width="1.51"/><path d="M-26,51L-35,94L-21,78Z" fill="#616161" stroke="#616161" stroke-width="1.51"/><path d="M-33,38L-35,94L-26,51Z" fill="#7e7e7e" stroke="#7e7e7e" stroke-width="1.51"/><path d="M-30,139L-32,186L-25,165Z" fill="#818181" stroke="#818181" stroke-width="1.51"/><path d="M-37,109L-32,186L-30,139Z" fill="#7b7b7b" stroke="#7b7b7b" stroke-width="1.51"/><path d="M-37,109L-36,217L-32,186Z" fill="#777777" stroke="#777777" stroke-width="1.51"/><path d="M-37,109L-35,94L-33,38Z" fill="#4f4f4f" stroke="#4f4f4f" stroke-width="1.51"/><path d="M-37,-4L-37,109L-33,38Z" fill="#424242" stroke="#424242" stroke-width="1.51"/></svg>