<svg xmlns="http://www.w3.org/2000/svg" width="400" height="400"><path d="M-17,-60L26,-54L112,-51Z" fill="#222222" stroke="#222222" stroke-width="1.51"/><path d="M86,453L55,455L212,457Z" fill="#707070" stroke="#707070" stroke-width="1.51"/><path d="M212,457L55,455L230,459Z" fill="#a7a7a7" stroke="#a7a7a7" stroke-width="1.51"/><path d="M55,455L-19,456L230,459Z" fill="#afafaf" stroke="#afafaf" stroke-width="1.51"/><path d="M112,-51L271,-48L318,-50Z" fill="#535353" stroke="#535353" stroke-width="1.51"/><path d="M-17,-60L112,-51L318,-50Z" fill="#808080" stroke="#808080" stroke-width="1.51"/><path d="M298,445L230,459L369,456Z" fill="#7c7c7c" stroke="#7c7c7c" stroke-width="1.51"/><path d="M369,456L230,459L395,458Z" fill="#cdcdcd" stroke="#cdcdcd" stroke-width="1.51"/><path d="M-17,-60L318,-50L395,-52Z" fill="#3e3e3e" stroke="#3e3e3e" stroke-width="1.51"/><path d="M436,-44L432,-13L451,27Z" fill="#5f5f5f" stroke="#5f5f5f" stroke-width="1.51"/><path d="M445,80L408,124L452,140Z" fill="#484848" stroke="#484848" stroke-width="1.51"/><path d="M450,196L415,231L454,251Z" fill="#2a2a2a" stroke="#2a2a2a" stroke-width="1.51"/><path d="M422,169L450,196L458,153Z" fill="#858585" stroke="#858585" stroke-width="1.51"/><path d="M450,196L454,251L458,153Z" fill="#bfbfbf" stroke="#bfbfbf" stroke-width="1.51"/><path d="M436,-44L451,27L460,48Z" fill="#acacac" stroke="#acacac" stroke-width="1.51"/><path d="M452,140L458,153L460,48Z" fill="#757575" stroke="#757575" stroke-width="1.51"/><path d="M445,80L452,140L460,48Z" fill="#9f9f9f" stroke="#9f9f9f" stroke-width="1.51"/><path d="M427,329L433,360L461,337Z" fill="#7e7e7e" stroke="#7e7e7e" stroke-width="1.51"/><path d="M432,299L427,329L461,337Z" fill="#5f5f5f" stroke="#5f5f5f" stroke-width="1.51"/><path d="M434,406L450,436L461,337Z" fill="#a5a5a5" stroke="#a5a5a5" stroke-width="1.51"/><path d="M433,360L434,406L461,337Z" fill="#727272" stroke="#727272" stroke-width="1.51"/><path d="M454,251L437,270L461,337Z" fill="#a4a4a4" stroke="#a4a4a4" stroke-width="1.51"/><path d="M437,270L432,299L461,337Z" fill="#464646" stroke="#464646" stroke-width="1.51"/><path d="M458,153L454,251L461,337Z" fill="#dbdbdb" stroke="#dbdbdb" stroke-width="1.51"/><path d="M460,48L458,153L461,337Z" fill="#b5b5b5" stroke="#b5b5b5" stroke-width="1.51"/><path d="M410,216L415,231L450,196Z" fill="#979797" stroke="#979797" stroke-width="1.51"/><path d="M451,27L423,27L460,48Z" fill="#333333" stroke="#333333" stroke-width="1.51"/><path d="M423,27L445,80L460,48Z" fill="#565656" stroke="#565656" stroke-width="1.51"/><path d="M423,27L413,79L445,80Z" fill="#ababab" stroke="#ababab" stroke-width="1.51"/><path d="M432,-13L423,27L451,27Z" fill="#828282" stroke="#828282" stroke-width="1.51"/><path d="M452,140L422,169L458,153Z" fill="#393939" stroke="#393939" stroke-width="1.51"/><path d="M413,79L408,124L445,80Z" fill="#979797" stroke="#979797" stroke-width="1.51"/><path d="M415,231L437,270L454,251Z" fill="#9c9c9c" stroke="#9c9c9c" stroke-width="1.51"/><path d="M433,360L418,363L434,406Z" fill="#b6b6b6" stroke="#b6b6b6" stroke-width="1.51"/><path d="M408,124L422,169L452,140Z" fill="#b6b6b6" stroke="#b6b6b6" stroke-width="1.51"/><path d="M434,406L398,409L450,436Z" fill="#a3a3a3" stroke="#a3a3a3" stroke-width="1.51"/><path d="M398,409L395,458L450,436Z" fill="#676767" stroke="#676767" stroke-width="1.51"/><path d="M422,169L410,216L450,196Z" fill="#a1a1a1" stroke="#a1a1a1" stroke-width="1.51"/><path d="M318,-50L323,-48L395,-52Z" fill="#6c6c6c" stroke="#6c6c6c" stroke-width="1.51"/><path d="M418,313L427,329L432,299Z" fill="#7f7f7f" stroke="#7f7f7f" stroke-width="1.51"/><path d="M391,65L413,79L423,27Z" fill="#595959" stroke="#595959" stroke-width="1.51"/><path d="M395,-52L387,-42L432,-13Z" fill="#5d5d5d" stroke="#5d5d5d" stroke-width="1.51"/><path d="M387,-42L393,-9L432,-13Z" fill="#424242" stroke="#424242" stroke-width="1.51"/><path d="M393,-9L423,27L432,-13Z" fill="#9d9d9d" stroke="#9d9d9d" stroke-width="1.51"/><path d="M427,329L418,363L433,360Z" fill="#a2a2a2" stroke="#a2a2a2" stroke-width="1.51"/><path d="M418,363L398,409L434,406Z" fill="#a7a7a7" stroke="#a7a7a7" stroke-width="1.51"/><path d="M395,-52L432,-13L436,-44Z" fill="#ababab" stroke="#ababab" stroke-width="1.51"/><path d="M400,260L432,299L437,270Z" fill="#8b8b8b" stroke="#8b8b8b" stroke-width="1.51"/><path d="M415,231L400,260L437,270Z" fill="#a4a4a4" stroke="#a4a4a4" stroke-width="1.51"/><path d="M408,124L389,143L422,169Z" fill="#555555" stroke="#555555" stroke-width="1.51"/><path d="M387,306L418,313L432,299Z" fill="#333333" stroke="#333333" stroke-width="1.51"/><path d="M400,260L387,306L432,299Z" fill="#616161" stroke="#616161" stroke-width="1.51"/><path d="M380,279L387,306L400,260Z" fill="#d0d0d0" stroke="#d0d0d0" stroke-width="1.51"/><path d="M391,65L395,73L413,79Z" fill="#757575" stroke="#757575" stroke-width="1.51"/><path d="M384,211L410,216L422,169Z" fill="#696969" stroke="#696969" stroke-width="1.51"/><path d="M375,172L384,211L422,169Z" fill="#8f8f8f" stroke="#8f8f8f" stroke-width="1.51"/><path d="M379,28L391,65L423,27Z" fill="#444444" stroke="#444444" stroke-width="1.51"/><path d="M369,359L418,363L427,329Z" fill="#464646" stroke="#464646" stroke-width="1.51"/><path d="M387,306L369,359L427,329Z" fill="#c5c5c5" stroke="#c5c5c5" stroke-width="1.51"/><path d="M418,313L387,306L427,329Z" fill="#4c4c4c" stroke="#4c4c4c" stroke-width="1.51"/><path d="M369,393L398,409L418,363Z" fill="#c7c7c7" stroke="#c7c7c7" stroke-width="1.51"/><path d="M393,-9L379,28L423,27Z" fill="#797979" stroke="#797979" stroke-width="1.51"/><path d="M395,73L408,124L413,79Z" fill="#535353" stroke="#535353" stroke-width="1.51"/><path d="M389,143L375,172L422,169Z" fill="#818181" stroke="#818181" stroke-width="1.51"/><path d="M395,73L370,81L408,124Z" fill="#c4c4c4" stroke="#c4c4c4" stroke-width="1.51"/><path d="M369,359L369,393L418,363Z" fill="#c1c1c1" stroke="#c1c1c1" stroke-width="1.51"/><path d="M361,323L369,359L387,306Z" fill="#b8b8b8" stroke="#b8b8b8" stroke-width="1.51"/><path d="M410,216L384,211L415,231Z" fill="#1e1e1e" stroke="#1e1e1e" stroke-width="1.51"/><path d="M384,211L400,260L415,231Z" fill="#5a5a5a" stroke="#5a5a5a" stroke-width="1.51"/><path d="M279,445L230,459L298,445Z" fill="#656565" stroke="#656565" stroke-width="1.51"/><path d="M384,211L364,229L400,260Z" fill="#9d9d9d" stroke="#9d9d9d" stroke-width="1.51"/><path d="M369,456L395,458L398,409Z" fill="#929292" stroke="#929292" stroke-width="1.51"/><path d="M370,81L357,123L408,124Z" fill="#7f7f7f" stroke="#7f7f7f" stroke-width="1.51"/><path d="M357,123L389,143L408,124Z" fill="#cccccc" stroke="#cccccc" stroke-width="1.51"/><path d="M387,-42L372,-12L393,-9Z" fill="#a8a8a8" stroke="#a8a8a8" stroke-width="1.51"/><path d="M372,-12L379,28L393,-9Z" fill="#c8c8c8" stroke="#c8c8c8" stroke-width="1.51"/><path d="M323,-48L387,-42L395,-52Z" fill="#737373" stroke="#737373" stroke-width="1.51"/><path d="M369,393L354,445L398,409Z" fill="#8e8e8e" stroke="#8e8e8e" stroke-width="1.51"/><path d="M354,445L369,456L398,409Z" fill="#777777" stroke="#777777" stroke-width="1.51"/><path d="M364,229L380,279L400,260Z" fill="#bfbfbf" stroke="#bfbfbf" stroke-width="1.51"/><path d="M352,400L354,445L369,393Z" fill="#5d5d5d" stroke="#5d5d5d" stroke-width="1.51"/><path d="M375,172L355,194L384,211Z" fill="#858585" stroke="#858585" stroke-width="1.51"/><path d="M391,65L370,81L395,73Z" fill="#c9c9c9" stroke="#c9c9c9" stroke-width="1.51"/><path d="M379,28L370,81L391,65Z" fill="#9f9f9f" stroke="#9f9f9f" stroke-width="1.51"/><path d="M364,229L342,270L380,279Z" fill="#888888" stroke="#888888" stroke-width="1.51"/><path d="M331,41L370,81L379,28Z" fill="#616161" stroke="#616161" stroke-width="1.51"/><path d="M344,159L375,172L389,143Z" fill="#6e6e6e" stroke="#6e6e6e" stroke-width="1.51"/><path d="M357,123L344,159L389,143Z" fill="#aeaeae" stroke="#aeaeae" stroke-width="1.51"/><path d="M380,279L341,305L387,306Z" fill="#868686" stroke="#868686" stroke-width="1.51"/><path d="M341,305L361,323L387,306Z" fill="#515151" stroke="#515151" stroke-width="1.51"/><path d="M351,-14L372,-12L387,-42Z" fill="#8e8e8e" stroke="#8e8e8e" stroke-width="1.51"/><path d="M323,-48L351,-14L387,-42Z" fill="#858585" stroke="#858585" stroke-width="1.51"/><path d="M354,445L298,445L369,456Z" fill="#a4a4a4" stroke="#a4a4a4" stroke-width="1.51"/><path d="M361,323L348,340L369,359Z" fill="#989898" stroke="#989898" stroke-width="1.51"/><path d="M372,-12L351,-14L379,28Z" fill="#ababab" stroke="#ababab" stroke-width="1.51"/><path d="M355,194L364,229L384,211Z" fill="#939393" stroke="#939393" stroke-width="1.51"/><path d="M112,-51L188,-32L271,-48Z" fill="#656565" stroke="#656565" stroke-width="1.51"/><path d="M351,385L369,393L369,359Z" fill="#9c9c9c" stroke="#9c9c9c" stroke-width="1.51"/><path d="M351,-14L331,41L379,28Z" fill="#6b6b6b" stroke="#6b6b6b" stroke-width="1.51"/><path d="M342,270L341,305L380,279Z" fill="#8a8a8a" stroke="#8a8a8a" stroke-width="1.51"/><path d="M336,88L357,123L370,81Z" fill="#696969" stroke="#696969" stroke-width="1.51"/><path d="M322,56L336,88L370,81Z" fill="#c1c1c1" stroke="#c1c1c1" stroke-width="1.51"/><path d="M331,41L322,56L370,81Z" fill="#a4a4a4" stroke="#a4a4a4" stroke-width="1.51"/><path d="M344,159L355,194L375,172Z" fill="#939393" stroke="#939393" stroke-width="1.51"/><path d="M355,194L340,220L364,229Z" fill="#696969" stroke="#696969" stroke-width="1.51"/><path d="M112,-51L150,-37L188,-32Z" fill="#6c6c6c" stroke="#6c6c6c" stroke-width="1.51"/><path d="M188,-32L226,-34L271,-48Z" fill="#757575" stroke="#757575" stroke-width="1.51"/><path d="M340,220L342,270L364,229Z" fill="#9e9e9e" stroke="#9e9e9e" stroke-width="1.51"/><path d="M351,385L352,400L369,393Z" fill="#979797" stroke="#979797" stroke-width="1.51"/><path d="M348,340L351,385L369,359Z" fill="#656565" stroke="#656565" stroke-width="1.51"/><path d="M340,220L313,233L342,270Z" fill="#cccccc" stroke="#cccccc" stroke-width="1.51"/><path d="M301,8L331,41L351,-14Z" fill="#c0c0c0" stroke="#c0c0c0" stroke-width="1.51"/><path d="M323,-48L319,-27L351,-14Z" fill="#b7b7b7" stroke="#b7b7b7" stroke-width="1.51"/><path d="M352,400L300,416L354,445Z" fill="#b7b7b7" stroke="#b7b7b7" stroke-width="1.51"/><path d="M341,305L348,340L361,323Z" fill="#888888" stroke="#888888" stroke-width="1.51"/><path d="M348,340L305,341L351,385Z" fill="#919191" stroke="#919191" stroke-width="1.51"/><path d="M305,341L295,370L351,385Z" fill="#737373" stroke="#737373" stroke-width="1.51"/><path d="M344,159L308,175L355,194Z" fill="#cfcfcf" stroke="#cfcfcf" stroke-width="1.51"/><path d="M308,175L309,193L355,194Z" fill="#686868" stroke="#686868" stroke-width="1.51"/><path d="M291,132L344,159L357,123Z" fill="#e3e3e3" stroke="#e3e3e3" stroke-width="1.51"/><path d="M336,88L291,132L357,123Z" fill="#767676" stroke="#767676" stroke-width="1.51"/><path d="M300,416L298,445L354,445Z" fill="#5c5c5c" stroke="#5c5c5c" stroke-width="1.51"/><path d="M309,193L340,220L355,194Z" fill="#cecece" stroke="#cecece" stroke-width="1.51"/><path d="M298,94L291,132L336,88Z" fill="#343434" stroke="#343434" stroke-width="1.51"/><path d="M319,-27L301,8L351,-14Z" fill="#8d8d8d" stroke="#8d8d8d" stroke-width="1.51"/><path d="M341,305L305,341L348,340Z" fill="#d0d0d0" stroke="#d0d0d0" stroke-width="1.51"/><path d="M351,385L300,416L352,400Z" fill="#7f7f7f" stroke="#7f7f7f" stroke-width="1.51"/><path d="M295,370L300,416L351,385Z" fill="#9f9f9f" stroke="#9f9f9f" stroke-width="1.51"/><path d="M292,318L305,341L341,305Z" fill="#5a5a5a" stroke="#5a5a5a" stroke-width="1.51"/><path d="M291,270L341,305L342,270Z" fill="#a7a7a7" stroke="#a7a7a7" stroke-width="1.51"/><path d="M291,132L308,175L344,159Z" fill="#353535" stroke="#353535" stroke-width="1.51"/><path d="M291,270L292,318L341,305Z" fill="#363636" stroke="#363636" stroke-width="1.51"/><path d="M313,233L291,270L342,270Z" fill="#787878" stroke="#787878" stroke-width="1.51"/><path d="M309,193L313,233L340,220Z" fill="#707070" stroke="#707070" stroke-width="1.51"/><path d="M322,56L298,94L336,88Z" fill="#9e9e9e" stroke="#9e9e9e" stroke-width="1.51"/><path d="M291,270L282,280L292,318Z" fill="#a6a6a6" stroke="#a6a6a6" stroke-width="1.51"/><path d="M291,58L322,56L331,41Z" fill="#525252" stroke="#525252" stroke-width="1.51"/><path d="M301,8L291,58L331,41Z" fill="#0d0d0d" stroke="#0d0d0d" stroke-width="1.51"/><path d="M291,58L298,94L322,56Z" fill="#626262" stroke="#626262" stroke-width="1.51"/><path d="M318,-50L319,-27L323,-48Z" fill="#888888" stroke="#888888" stroke-width="1.51"/><path d="M277,242L291,270L313,233Z" fill="#bfbfbf" stroke="#bfbfbf" stroke-width="1.51"/><path d="M318,-50L271,-48L319,-27Z" fill="#636363" stroke="#636363" stroke-width="1.51"/><path d="M271,-48L301,8L319,-27Z" fill="#767676" stroke="#767676" stroke-width="1.51"/><path d="M309,193L261,207L313,233Z" fill="#8b8b8b" stroke="#8b8b8b" stroke-width="1.51"/><path d="M261,207L277,242L313,233Z" fill="#737373" stroke="#737373" stroke-width="1.51"/><path d="M291,58L278,69L298,94Z" fill="#aeaeae" stroke="#aeaeae" stroke-width="1.51"/><path d="M271,-48L258,1L301,8Z" fill="#717171" stroke="#717171" stroke-width="1.51"/><path d="M276,101L291,132L298,94Z" fill="#787878" stroke="#787878" stroke-width="1.51"/><path d="M295,370L274,370L300,416Z" fill="#c0c0c0" stroke="#c0c0c0" stroke-width="1.51"/><path d="M259,15L291,58L301,8Z" fill="#767676" stroke="#767676" stroke-width="1.51"/><path d="M291,132L254,163L308,175Z" fill="#787878" stroke="#787878" stroke-width="1.51"/><path d="M308,175L261,207L309,193Z" fill="#777777" stroke="#777777" stroke-width="1.51"/><path d="M292,318L286,321L305,341Z" fill="#9b9b9b" stroke="#9b9b9b" stroke-width="1.51"/><path d="M254,163L261,207L308,175Z" fill="#676767" stroke="#676767" stroke-width="1.51"/><path d="M274,370L253,393L300,416Z" fill="#949494" stroke="#949494" stroke-width="1.51"/><path d="M279,445L298,445L300,416Z" fill="#747474" stroke="#747474" stroke-width="1.51"/><path d="M274,370L295,370L305,341Z" fill="#828282" stroke="#828282" stroke-width="1.51"/><path d="M286,321L274,370L305,341Z" fill="#b2b2b2" stroke="#b2b2b2" stroke-width="1.51"/><path d="M254,332L274,370L286,321Z" fill="#797979" stroke="#797979" stroke-width="1.51"/><path d="M258,1L259,15L301,8Z" fill="#898989" stroke="#898989" stroke-width="1.51"/><path d="M282,280L286,321L292,318Z" fill="#5b5b5b" stroke="#5b5b5b" stroke-width="1.51"/><path d="M278,69L276,101L298,94Z" fill="#b7b7b7" stroke="#b7b7b7" stroke-width="1.51"/><path d="M253,393L279,445L300,416Z" fill="#7d7d7d" stroke="#7d7d7d" stroke-width="1.51"/><path d="M276,101L264,112L291,132Z" fill="#515151" stroke="#515151" stroke-width="1.51"/><path d="M259,15L248,49L291,58Z" fill="#424242" stroke="#424242" stroke-width="1.51"/><path d="M282,280L251,319L286,321Z" fill="#262626" stroke="#262626" stroke-width="1.51"/><path d="M277,242L282,280L291,270Z" fill="#989898" stroke="#989898" stroke-width="1.51"/><path d="M248,49L278,69L291,58Z" fill="#5b5b5b" stroke="#5b5b5b" stroke-width="1.51"/><path d="M253,393L234,411L279,445Z" fill="#999999" stroke="#999999" stroke-width="1.51"/><path d="M277,242L250,266L282,280Z" fill="#5c5c5c" stroke="#5c5c5c" stroke-width="1.51"/><path d="M264,112L254,163L291,132Z" fill="#8c8c8c" stroke="#8c8c8c" stroke-width="1.51"/><path d="M251,319L254,332L286,321Z" fill="#868686" stroke="#868686" stroke-width="1.51"/><path d="M143,440L86,453L212,457Z" fill="#7b7b7b" stroke="#7b7b7b" stroke-width="1.51"/><path d="M250,266L251,319L282,280Z" fill="#999999" stroke="#999999" stroke-width="1.51"/><path d="M248,49L220,103L264,112Z" fill="#c2c2c2" stroke="#c2c2c2" stroke-width="1.51"/><path d="M226,-34L258,1L271,-48Z" fill="#b1b1b1" stroke="#b1b1b1" stroke-width="1.51"/><path d="M264,112L276,101L278,69Z" fill="#616161" stroke="#616161" stroke-width="1.51"/><path d="M248,49L264,112L278,69Z" fill="#9d9d9d" stroke="#9d9d9d" stroke-width="1.51"/><path d="M234,411L230,459L279,445Z" fill="#929292" stroke="#929292" stroke-width="1.51"/><path d="M242,41L248,49L259,15Z" fill="#747474" stroke="#747474" stroke-width="1.51"/><path d="M234,157L254,163L264,112Z" fill="#c7c7c7" stroke="#c7c7c7" stroke-width="1.51"/><path d="M261,207L220,220L277,242Z" fill="#696969" stroke="#696969" stroke-width="1.51"/><path d="M220,220L250,266L277,242Z" fill="#e0e0e0" stroke="#e0e0e0" stroke-width="1.51"/><path d="M254,332L225,351L274,370Z" fill="#aaaaaa" stroke="#aaaaaa" stroke-width="1.51"/><path d="M244,390L253,393L274,370Z" fill="#c3c3c3" stroke="#c3c3c3" stroke-width="1.51"/><path d="M225,351L244,390L274,370Z" fill="#cecece" stroke="#cecece" stroke-width="1.51"/><path d="M226,-34L235,0L258,1Z" fill="#999999" stroke="#999999" stroke-width="1.51"/><path d="M218,128L234,157L264,112Z" fill="#b8b8b8" stroke="#b8b8b8" stroke-width="1.51"/><path d="M250,266L208,298L251,319Z" fill="#8b8b8b" stroke="#8b8b8b" stroke-width="1.51"/><path d="M234,157L223,208L254,163Z" fill="#b1b1b1" stroke="#b1b1b1" stroke-width="1.51"/><path d="M223,208L220,220L261,207Z" fill="#868686" stroke="#868686" stroke-width="1.51"/><path d="M254,163L223,208L261,207Z" fill="#ababab" stroke="#ababab" stroke-width="1.51"/><path d="M220,103L218,128L264,112Z" fill="#545454" stroke="#545454" stroke-width="1.51"/><path d="M198,66L220,103L248,49Z" fill="#606060" stroke="#606060" stroke-width="1.51"/><path d="M220,220L216,266L250,266Z" fill="#898989" stroke="#898989" stroke-width="1.51"/><path d="M216,266L208,298L250,266Z" fill="#3a3a3a" stroke="#3a3a3a" stroke-width="1.51"/><path d="M258,1L235,0L259,15Z" fill="#dcdcdc" stroke="#dcdcdc" stroke-width="1.51"/><path d="M235,0L242,41L259,15Z" fill="#acacac" stroke="#acacac" stroke-width="1.51"/><path d="M244,390L234,411L253,393Z" fill="#999999" stroke="#999999" stroke-width="1.51"/><path d="M251,319L213,341L254,332Z" fill="#c2c2c2" stroke="#c2c2c2" stroke-width="1.51"/><path d="M213,341L225,351L254,332Z" fill="#888888" stroke="#888888" stroke-width="1.51"/><path d="M208,298L213,341L251,319Z" fill="#3a3a3a" stroke="#3a3a3a" stroke-width="1.51"/><path d="M242,41L198,66L248,49Z" fill="#4f4f4f" stroke="#4f4f4f" stroke-width="1.51"/><path d="M212,457L230,459L234,411Z" fill="#303030" stroke="#303030" stroke-width="1.51"/><path d="M200,239L216,266L220,220Z" fill="#a7a7a7" stroke="#a7a7a7" stroke-width="1.51"/><path d="M192,182L223,208L234,157Z" fill="#676767" stroke="#676767" stroke-width="1.51"/><path d="M235,0L183,25L242,41Z" fill="#414141" stroke="#414141" stroke-width="1.51"/><path d="M192,374L234,411L244,390Z" fill="#727272" stroke="#727272" stroke-width="1.51"/><path d="M225,351L192,374L244,390Z" fill="#646464" stroke="#646464" stroke-width="1.51"/><path d="M183,25L198,66L242,41Z" fill="#6c6c6c" stroke="#6c6c6c" stroke-width="1.51"/><path d="M179,431L212,457L234,411Z" fill="#8d8d8d" stroke="#8d8d8d" stroke-width="1.51"/><path d="M192,374L183,394L234,411Z" fill="#c8c8c8" stroke="#c8c8c8" stroke-width="1.51"/><path d="M226,-34L186,-17L235,0Z" fill="#686868" stroke="#686868" stroke-width="1.51"/><path d="M186,-17L183,25L235,0Z" fill="#cbcbcb" stroke="#cbcbcb" stroke-width="1.51"/><path d="M183,394L179,431L234,411Z" fill="#888888" stroke="#888888" stroke-width="1.51"/><path d="M218,128L182,157L234,157Z" fill="#7a7a7a" stroke="#7a7a7a" stroke-width="1.51"/><path d="M182,157L192,182L234,157Z" fill="#acacac" stroke="#acacac" stroke-width="1.51"/><path d="M175,0L183,25L186,-17Z" fill="#a6a6a6" stroke="#a6a6a6" stroke-width="1.51"/><path d="M192,182L205,214L223,208Z" fill="#bdbdbd" stroke="#bdbdbd" stroke-width="1.51"/><path d="M213,341L192,374L225,351Z" fill="#757575" stroke="#757575" stroke-width="1.51"/><path d="M188,-32L186,-17L226,-34Z" fill="#b1b1b1" stroke="#b1b1b1" stroke-width="1.51"/><path d="M194,110L218,128L220,103Z" fill="#646464" stroke="#646464" stroke-width="1.51"/><path d="M198,66L194,110L220,103Z" fill="#a4a4a4" stroke="#a4a4a4" stroke-width="1.51"/><path d="M205,214L220,220L223,208Z" fill="#666666" stroke="#666666" stroke-width="1.51"/><path d="M178,81L194,110L198,66Z" fill="#808080" stroke="#808080" stroke-width="1.51"/><path d="M208,298L167,327L213,341Z" fill="#929292" stroke="#929292" stroke-width="1.51"/><path d="M178,130L182,157L218,128Z" fill="#adadad" stroke="#adadad" stroke-width="1.51"/><path d="M205,214L200,239L220,220Z" fill="#515151" stroke="#515151" stroke-width="1.51"/><path d="M175,256L208,298L216,266Z" fill="#878787" stroke="#878787" stroke-width="1.51"/><path d="M194,110L178,130L218,128Z" fill="#8a8a8a" stroke="#8a8a8a" stroke-width="1.51"/><path d="M26,-54L66,-46L112,-51Z" fill="#636363" stroke="#636363" stroke-width="1.51"/><path d="M200,239L175,256L216,266Z" fill="#b9b9b9" stroke="#b9b9b9" stroke-width="1.51"/><path d="M179,431L143,440L212,457Z" fill="#7f7f7f" stroke="#7f7f7f" stroke-width="1.51"/><path d="M167,327L192,374L213,341Z" fill="#757575" stroke="#757575" stroke-width="1.51"/><path d="M192,182L168,203L205,214Z" fill="#7f7f7f" stroke="#7f7f7f" stroke-width="1.51"/><path d="M175,256L161,306L208,298Z" fill="#9c9c9c" stroke="#9c9c9c" stroke-width="1.51"/><path d="M161,306L167,327L208,298Z" fill="#5f5f5f" stroke="#5f5f5f" stroke-width="1.51"/><path d="M182,113L178,130L194,110Z" fill="#494949" stroke="#494949" stroke-width="1.51"/><path d="M165,233L200,239L205,214Z" fill="#414141" stroke="#414141" stroke-width="1.51"/><path d="M168,203L165,233L205,214Z" fill="#787878" stroke="#787878" stroke-width="1.51"/><path d="M169,401L179,431L183,394Z" fill="#777777" stroke="#777777" stroke-width="1.51"/><path d="M167,327L159,374L192,374Z" fill="#8d8d8d" stroke="#8d8d8d" stroke-width="1.51"/><path d="M178,81L182,113L194,110Z" fill="#626262" stroke="#626262" stroke-width="1.51"/><path d="M183,25L157,67L198,66Z" fill="#818181" stroke="#818181" stroke-width="1.51"/><path d="M165,233L175,256L200,239Z" fill="#b2b2b2" stroke="#b2b2b2" stroke-width="1.51"/><path d="M157,67L178,81L198,66Z" fill="#b1b1b1" stroke="#b1b1b1" stroke-width="1.51"/><path d="M175,0L173,21L183,25Z" fill="#adadad" stroke="#adadad" stroke-width="1.51"/><path d="M173,21L157,67L183,25Z" fill="#606060" stroke="#606060" stroke-width="1.51"/><path d="M159,374L183,394L192,374Z" fill="#bcbcbc" stroke="#bcbcbc" stroke-width="1.51"/><path d="M182,157L168,203L192,182Z" fill="#8e8e8e" stroke="#8e8e8e" stroke-width="1.51"/><path d="M133,178L168,203L182,157Z" fill="#828282" stroke="#828282" stroke-width="1.51"/><path d="M150,-37L186,-17L188,-32Z" fill="#aaaaaa" stroke="#aaaaaa" stroke-width="1.51"/><path d="M150,-37L175,0L186,-17Z" fill="#919191" stroke="#919191" stroke-width="1.51"/><path d="M135,50L157,67L173,21Z" fill="#333333" stroke="#333333" stroke-width="1.51"/><path d="M147,249L161,306L175,256Z" fill="#4f4f4f" stroke="#4f4f4f" stroke-width="1.51"/><path d="M178,81L123,95L182,113Z" fill="#727272" stroke="#727272" stroke-width="1.51"/><path d="M123,95L127,120L182,113Z" fill="#787878" stroke="#787878" stroke-width="1.51"/><path d="M178,130L133,178L182,157Z" fill="#565656" stroke="#565656" stroke-width="1.51"/><path d="M159,374L169,401L183,394Z" fill="#d2d2d2" stroke="#d2d2d2" stroke-width="1.51"/><path d="M150,-37L139,-7L175,0Z" fill="#474747" stroke="#474747" stroke-width="1.51"/><path d="M127,120L133,178L178,130Z" fill="#a3a3a3" stroke="#a3a3a3" stroke-width="1.51"/><path d="M157,67L123,95L178,81Z" fill="#6a6a6a" stroke="#6a6a6a" stroke-width="1.51"/><path d="M127,120L178,130L182,113Z" fill="#686868" stroke="#686868" stroke-width="1.51"/><path d="M112,-51L134,-37L150,-37Z" fill="#b0b0b0" stroke="#b0b0b0" stroke-width="1.51"/><path d="M169,401L143,440L179,431Z" fill="#9f9f9f" stroke="#9f9f9f" stroke-width="1.51"/><path d="M147,249L143,309L161,306Z" fill="#676767" stroke="#676767" stroke-width="1.51"/><path d="M120,347L159,374L167,327Z" fill="#686868" stroke="#686868" stroke-width="1.51"/><path d="M139,-7L133,16L173,21Z" fill="#929292" stroke="#929292" stroke-width="1.51"/><path d="M133,16L135,50L173,21Z" fill="#454545" stroke="#454545" stroke-width="1.51"/><path d="M165,233L147,249L175,256Z" fill="#b0b0b0" stroke="#b0b0b0" stroke-width="1.51"/><path d="M139,-7L173,21L175,0Z" fill="#a2a2a2" stroke="#a2a2a2" stroke-width="1.51"/><path d="M139,211L165,233L168,203Z" fill="#4d4d4d" stroke="#4d4d4d" stroke-width="1.51"/><path d="M126,424L143,440L169,401Z" fill="#929292" stroke="#929292" stroke-width="1.51"/><path d="M112,279L143,309L147,249Z" fill="#afafaf" stroke="#afafaf" stroke-width="1.51"/><path d="M161,306L143,309L167,327Z" fill="#3c3c3c" stroke="#3c3c3c" stroke-width="1.51"/><path d="M133,178L139,211L168,203Z" fill="#909090" stroke="#909090" stroke-width="1.51"/><path d="M159,374L116,379L169,401Z" fill="#969696" stroke="#969696" stroke-width="1.51"/><path d="M116,379L126,424L169,401Z" fill="#7d7d7d" stroke="#7d7d7d" stroke-width="1.51"/><path d="M143,309L120,347L167,327Z" fill="#bababa" stroke="#bababa" stroke-width="1.51"/><path d="M139,211L147,249L165,233Z" fill="#3e3e3e" stroke="#3e3e3e" stroke-width="1.51"/><path d="M122,253L112,279L147,249Z" fill="#999999" stroke="#999999" stroke-width="1.51"/><path d="M120,347L116,379L159,374Z" fill="#adadad" stroke="#adadad" stroke-width="1.51"/><path d="M134,-37L139,-7L150,-37Z" fill="#bababa" stroke="#bababa" stroke-width="1.51"/><path d="M135,50L123,95L157,67Z" fill="#cccccc" stroke="#cccccc" stroke-width="1.51"/><path d="M127,120L95,160L133,178Z" fill="#262626" stroke="#262626" stroke-width="1.51"/><path d="M106,73L123,95L135,50Z" fill="#888888" stroke="#888888" stroke-width="1.51"/><path d="M139,211L122,253L147,249Z" fill="#bfbfbf" stroke="#bfbfbf" stroke-width="1.51"/><path d="M14,450L-19,456L55,455Z" fill="#979797" stroke="#979797" stroke-width="1.51"/><path d="M133,178L102,196L139,211Z" fill="#898989" stroke="#898989" stroke-width="1.51"/><path d="M134,-37L103,-27L139,-7Z" fill="#878787" stroke="#878787" stroke-width="1.51"/><path d="M126,424L86,453L143,440Z" fill="#393939" stroke="#393939" stroke-width="1.51"/><path d="M102,294L120,347L143,309Z" fill="#5e5e5e" stroke="#5e5e5e" stroke-width="1.51"/><path d="M112,279L102,294L143,309Z" fill="#666666" stroke="#666666" stroke-width="1.51"/><path d="M133,16L94,16L135,50Z" fill="#424242" stroke="#424242" stroke-width="1.51"/><path d="M84,227L122,253L139,211Z" fill="#3e3e3e" stroke="#3e3e3e" stroke-width="1.51"/><path d="M102,196L84,227L139,211Z" fill="#6e6e6e" stroke="#6e6e6e" stroke-width="1.51"/><path d="M94,16L133,16L139,-7Z" fill="#a2a2a2" stroke="#a2a2a2" stroke-width="1.51"/><path d="M103,-27L94,16L139,-7Z" fill="#6d6d6d" stroke="#6d6d6d" stroke-width="1.51"/><path d="M116,379L86,405L126,424Z" fill="#282828" stroke="#282828" stroke-width="1.51"/><path d="M85,136L95,160L127,120Z" fill="#aaaaaa" stroke="#aaaaaa" stroke-width="1.51"/><path d="M94,16L106,73L135,50Z" fill="#414141" stroke="#414141" stroke-width="1.51"/><path d="M104,379L86,405L116,379Z" fill="#a7a7a7" stroke="#a7a7a7" stroke-width="1.51"/><path d="M112,-51L103,-27L134,-37Z" fill="#727272" stroke="#727272" stroke-width="1.51"/><path d="M123,95L111,97L127,120Z" fill="#5a5a5a" stroke="#5a5a5a" stroke-width="1.51"/><path d="M95,160L102,196L133,178Z" fill="#7a7a7a" stroke="#7a7a7a" stroke-width="1.51"/><path d="M104,379L116,379L120,347Z" fill="#676767" stroke="#676767" stroke-width="1.51"/><path d="M102,294L81,342L120,347Z" fill="#929292" stroke="#929292" stroke-width="1.51"/><path d="M106,73L111,97L123,95Z" fill="#6e6e6e" stroke="#6e6e6e" stroke-width="1.51"/><path d="M111,97L85,136L127,120Z" fill="#444444" stroke="#444444" stroke-width="1.51"/><path d="M86,405L86,453L126,424Z" fill="#9c9c9c" stroke="#9c9c9c" stroke-width="1.51"/><path d="M81,342L104,379L120,347Z" fill="#5f5f5f" stroke="#5f5f5f" stroke-width="1.51"/><path d="M84,227L112,279L122,253Z" fill="#919191" stroke="#919191" stroke-width="1.51"/><path d="M81,342L73,357L104,379Z" fill="#8f8f8f" stroke="#8f8f8f" stroke-width="1.51"/><path d="M94,16L75,77L106,73Z" fill="#838383" stroke="#838383" stroke-width="1.51"/><path d="M48,44L75,77L94,16Z" fill="#757575" stroke="#757575" stroke-width="1.51"/><path d="M49,37L48,44L94,16Z" fill="#484848" stroke="#484848" stroke-width="1.51"/><path d="M59,316L81,342L102,294Z" fill="#9a9a9a" stroke="#9a9a9a" stroke-width="1.51"/><path d="M106,73L75,77L111,97Z" fill="#a3a3a3" stroke="#a3a3a3" stroke-width="1.51"/><path d="M75,77L85,136L111,97Z" fill="#7e7e7e" stroke="#7e7e7e" stroke-width="1.51"/><path d="M45,285L102,294L112,279Z" fill="#b6b6b6" stroke="#b6b6b6" stroke-width="1.51"/><path d="M84,227L45,285L112,279Z" fill="#a4a4a4" stroke="#a4a4a4" stroke-width="1.51"/><path d="M66,-46L103,-27L112,-51Z" fill="#939393" stroke="#939393" stroke-width="1.51"/><path d="M42,-27L94,16L103,-27Z" fill="#a6a6a6" stroke="#a6a6a6" stroke-width="1.51"/><path d="M66,-46L42,-27L103,-27Z" fill="#a7a7a7" stroke="#a7a7a7" stroke-width="1.51"/><path d="M95,160L62,205L102,196Z" fill="#777777" stroke="#777777" stroke-width="1.51"/><path d="M62,205L84,227L102,196Z" fill="#b4b4b4" stroke="#b4b4b4" stroke-width="1.51"/><path d="M73,357L86,405L104,379Z" fill="#b8b8b8" stroke="#b8b8b8" stroke-width="1.51"/><path d="M45,285L59,316L102,294Z" fill="#7e7e7e" stroke="#7e7e7e" stroke-width="1.51"/><path d="M29,249L45,285L84,227Z" fill="#959595" stroke="#959595" stroke-width="1.51"/><path d="M75,77L38,110L85,136Z" fill="#737373" stroke="#737373" stroke-width="1.51"/><path d="M38,110L61,139L85,136Z" fill="#9d9d9d" stroke="#9d9d9d" stroke-width="1.51"/><path d="M73,357L43,399L86,405Z" fill="#c1c1c1" stroke="#c1c1c1" stroke-width="1.51"/><path d="M55,455L86,453L86,405Z" fill="#7b7b7b" stroke="#7b7b7b" stroke-width="1.51"/><path d="M42,-27L49,37L94,16Z" fill="#b5b5b5" stroke="#b5b5b5" stroke-width="1.51"/><path d="M61,139L41,158L95,160Z" fill="#4b4b4b" stroke="#4b4b4b" stroke-width="1.51"/><path d="M41,158L42,179L95,160Z" fill="#8b8b8b" stroke="#8b8b8b" stroke-width="1.51"/><path d="M42,179L62,205L95,160Z" fill="#8e8e8e" stroke="#8e8e8e" stroke-width="1.51"/><path d="M85,136L61,139L95,160Z" fill="#b6b6b6" stroke="#b6b6b6" stroke-width="1.51"/><path d="M46,219L29,249L84,227Z" fill="#606060" stroke="#606060" stroke-width="1.51"/><path d="M43,399L55,455L86,405Z" fill="#8e8e8e" stroke="#8e8e8e" stroke-width="1.51"/><path d="M62,205L46,219L84,227Z" fill="#6f6f6f" stroke="#6f6f6f" stroke-width="1.51"/><path d="M44,350L73,357L81,342Z" fill="#8d8d8d" stroke="#8d8d8d" stroke-width="1.51"/><path d="M59,316L44,350L81,342Z" fill="#acacac" stroke="#acacac" stroke-width="1.51"/><path d="M44,350L43,399L73,357Z" fill="#818181" stroke="#818181" stroke-width="1.51"/><path d="M48,44L31,60L75,77Z" fill="#717171" stroke="#717171" stroke-width="1.51"/><path d="M31,60L38,110L75,77Z" fill="#8a8a8a" stroke="#8a8a8a" stroke-width="1.51"/><path d="M42,-27L11,-16L49,37Z" fill="#5a5a5a" stroke="#5a5a5a" stroke-width="1.51"/><path d="M43,399L8,422L55,455Z" fill="#646464" stroke="#646464" stroke-width="1.51"/><path d="M8,422L14,450L55,455Z" fill="#424242" stroke="#424242" stroke-width="1.51"/><path d="M26,-54L42,-27L66,-46Z" fill="#636363" stroke="#636363" stroke-width="1.51"/><path d="M21,340L44,350L59,316Z" fill="#7a7a7a" stroke="#7a7a7a" stroke-width="1.51"/><path d="M38,110L24,137L61,139Z" fill="#6b6b6b" stroke="#6b6b6b" stroke-width="1.51"/><path d="M42,179L46,219L62,205Z" fill="#909090" stroke="#909090" stroke-width="1.51"/><path d="M10,370L43,399L44,350Z" fill="#545454" stroke="#545454" stroke-width="1.51"/><path d="M24,137L41,158L61,139Z" fill="#626262" stroke="#626262" stroke-width="1.51"/><path d="M11,-16L8,38L49,37Z" fill="#5b5b5b" stroke="#5b5b5b" stroke-width="1.51"/><path d="M13,317L21,340L59,316Z" fill="#555555" stroke="#555555" stroke-width="1.51"/><path d="M45,285L13,317L59,316Z" fill="#1b1b1b" stroke="#1b1b1b" stroke-width="1.51"/><path d="M42,179L14,197L46,219Z" fill="#5e5e5e" stroke="#5e5e5e" stroke-width="1.51"/><path d="M29,249L11,260L45,285Z" fill="#464646" stroke="#464646" stroke-width="1.51"/><path d="M8,38L48,44L49,37Z" fill="#1a1a1a" stroke="#1a1a1a" stroke-width="1.51"/><path d="M31,60L0,112L38,110Z" fill="#696969" stroke="#696969" stroke-width="1.51"/><path d="M11,260L6,276L45,285Z" fill="#535353" stroke="#535353" stroke-width="1.51"/><path d="M8,38L31,60L48,44Z" fill="#343434" stroke="#343434" stroke-width="1.51"/><path d="M21,340L10,370L44,350Z" fill="#4f4f4f" stroke="#4f4f4f" stroke-width="1.51"/><path d="M6,276L13,317L45,285Z" fill="#737373" stroke="#737373" stroke-width="1.51"/><path d="M14,197L29,249L46,219Z" fill="#1d1d1d" stroke="#1d1d1d" stroke-width="1.51"/><path d="M14,197L-9,225L29,249Z" fill="#616161" stroke="#616161" stroke-width="1.51"/><path d="M41,158L6,157L42,179Z" fill="#525252" stroke="#525252" stroke-width="1.51"/><path d="M26,-54L11,-16L42,-27Z" fill="#686868" stroke="#686868" stroke-width="1.51"/><path d="M10,370L8,422L43,399Z" fill="#6b6b6b" stroke="#6b6b6b" stroke-width="1.51"/><path d="M6,157L14,197L42,179Z" fill="#8a8a8a" stroke="#8a8a8a" stroke-width="1.51"/><path d="M24,137L6,157L41,158Z" fill="#363636" stroke="#363636" stroke-width="1.51"/><path d="M6,50L0,112L31,60Z" fill="#bbbbbb" stroke="#bbbbbb" stroke-width="1.51"/><path d="M8,38L6,50L31,60Z" fill="#777777" stroke="#777777" stroke-width="1.51"/><path d="M0,112L24,137L38,110Z" fill="#565656" stroke="#565656" stroke-width="1.51"/><path d="M-12,385L8,422L10,370Z" fill="#d1d1d1" stroke="#d1d1d1" stroke-width="1.51"/><path d="M1,-22L11,-16L26,-54Z" fill="#a9a9a9" stroke="#a9a9a9" stroke-width="1.51"/><path d="M-9,225L11,260L29,249Z" fill="#dbdbdb" stroke="#dbdbdb" stroke-width="1.51"/><path d="M-24,27L8,38L11,-16Z" fill="#a2a2a2" stroke="#a2a2a2" stroke-width="1.51"/><path d="M0,112L-10,131L24,137Z" fill="#b8b8b8" stroke="#b8b8b8" stroke-width="1.51"/><path d="M-17,-60L1,-22L26,-54Z" fill="#989898" stroke="#989898" stroke-width="1.51"/><path d="M-37,98L0,112L6,50Z" fill="#9d9d9d" stroke="#9d9d9d" stroke-width="1.51"/><path d="M6,157L-17,186L14,197Z" fill="#acacac" stroke="#acacac" stroke-width="1.51"/><path d="M13,317L-1,335L21,340Z" fill="#d2d2d2" stroke="#d2d2d2" stroke-width="1.51"/><path d="M-1,335L10,370L21,340Z" fill="#b5b5b5" stroke="#b5b5b5" stroke-width="1.51"/><path d="M-10,131L6,157L24,137Z" fill="#dddddd" stroke="#dddddd" stroke-width="1.51"/><path d="M6,276L-18,311L13,317Z" fill="#7d7d7d" stroke="#7d7d7d" stroke-width="1.51"/><path d="M-36,14L-24,27L1,-22Z" fill="#a7a7a7" stroke="#a7a7a7" stroke-width="1.51"/><path d="M-12,385L-22,396L8,422Z" fill="#595959" stroke="#595959" stroke-width="1.51"/><path d="M1,-22L-24,27L11,-16Z" fill="#acacac" stroke="#acacac" stroke-width="1.51"/><path d="M8,422L-19,456L14,450Z" fill="#868686" stroke="#868686" stroke-width="1.51"/><path d="M-17,186L-9,225L14,197Z" fill="#b8b8b8" stroke="#b8b8b8" stroke-width="1.51"/><path d="M-51,74L-37,98L6,50Z" fill="#a1a1a1" stroke="#a1a1a1" stroke-width="1.51"/><path d="M-18,311L-1,335L13,317Z" fill="#9b9b9b" stroke="#9b9b9b" stroke-width="1.51"/><path d="M-29,283L-18,311L6,276Z" fill="#898989" stroke="#898989" stroke-width="1.51"/><path d="M-1,335L-12,385L10,370Z" fill="#9c9c9c" stroke="#9c9c9c" stroke-width="1.51"/><path d="M-9,225L-44,250L11,260Z" fill="#a9a9a9" stroke="#a9a9a9" stroke-width="1.51"/><path d="M-29,283L6,276L11,260Z" fill="#737373" stroke="#737373" stroke-width="1.51"/><path d="M-44,250L-29,283L11,260Z" fill="#737373" stroke="#737373" stroke-width="1.51"/><path d="M-22,396L-19,456L8,422Z" fill="#a1a1a1" stroke="#a1a1a1" stroke-width="1.51"/><path d="M-24,27L6,50L8,38Z" fill="#626262" stroke="#626262" stroke-width="1.51"/><path d="M-47,334L-12,385L-1,335Z" fill="#767676" stroke="#767676" stroke-width="1.51"/><path d="M-10,131L-29,145L6,157Z" fill="#939393" stroke="#939393" stroke-width="1.51"/><path d="M-29,145L-17,186L6,157Z" fill="#777777" stroke="#777777" stroke-width="1.51"/><path d="M-24,27L-51,74L6,50Z" fill="#6b6b6b" stroke="#6b6b6b" stroke-width="1.51"/><path d="M-44,401L-42,452L-22,396Z" fill="#969696" stroke="#969696" stroke-width="1.51"/><path d="M-22,396L-42,452L-19,456Z" fill="#767676" stroke="#767676" stroke-width="1.51"/><path d="M-58,0L-36,14L1,-22Z" fill="#a7a7a7" stroke="#a7a7a7" stroke-width="1.51"/><path d="M-53,-49L-58,0L1,-22Z" fill="#9c9c9c" stroke="#9c9c9c" stroke-width="1.51"/><path d="M-17,-60L-53,-49L1,-22Z" fill="#7e7e7e" stroke="#7e7e7e" stroke-width="1.51"/><path d="M-37,98L-10,131L0,112Z" fill="#535353" stroke="#535353" stroke-width="1.51"/><path d="M-18,311L-47,334L-1,335Z" fill="#979797" stroke="#979797" stroke-width="1.51"/><path d="M-29,283L-35,297L-18,311Z" fill="#7c7c7c" stroke="#7c7c7c" stroke-width="1.51"/><path d="M-29,145L-53,172L-17,186Z" fill="#a1a1a1" stroke="#a1a1a1" stroke-width="1.51"/><path d="M-47,334L-56,387L-12,385Z" fill="#acacac" stroke="#acacac" stroke-width="1.51"/><path d="M-37,98L-29,145L-10,131Z" fill="#858585" stroke="#858585" stroke-width="1.51"/><path d="M-17,186L-57,199L-9,225Z" fill="#a6a6a6" stroke="#a6a6a6" stroke-width="1.51"/><path d="M-57,199L-44,250L-9,225Z" fill="#5c5c5c" stroke="#5c5c5c" stroke-width="1.51"/><path d="M-56,387L-22,396L-12,385Z" fill="#c5c5c5" stroke="#c5c5c5" stroke-width="1.51"/><path d="M-56,387L-44,401L-22,396Z" fill="#a6a6a6" stroke="#a6a6a6" stroke-width="1.51"/><path d="M-53,172L-57,199L-17,186Z" fill="#6e6e6e" stroke="#6e6e6e" stroke-width="1.51"/><path d="M-35,297L-47,334L-18,311Z" fill="#717171" stroke="#717171" stroke-width="1.51"/><path d="M-36,14L-51,74L-24,27Z" fill="#666666" stroke="#666666" stroke-width="1.51"/><path d="M-58,0L-51,74L-36,14Z" fill="#313131" stroke="#313131" stroke-width="1.51"/><path d="M-44,250L-35,297L-29,283Z" fill="#8f8f8f" stroke="#8f8f8f" stroke-width="1.51"/><path d="M-37,98L-53,172L-29,145Z" fill="#d2d2d2" stroke="#d2d2d2" stroke-width="1.51"/><path d="M-51,74L-53,172L-37,98Z" fill="#444444" stroke="#444444" stroke-width="1.51"/><path d="M-44,250L-47,334L-35,297Z" fill="#8e8e8e" stroke="#8e8e8e" stroke-width="1.51"/><path d="M-44,401L-56,387L-42,452Z" fill="#575757" stroke="#575757" stroke-width="1.51"/><path d="M-57,199L-47,334L-44,250Z" fill="#606060" stroke="#606060" stroke-width="1.51"/><path d="M-57,199L-56,387L-47,334Z" fill="#181818" stroke="#181818" stroke-width="1.51"/><path d="M-57,199L-53,172L-51,74Z" fill="#383838" stroke="#383838" stroke-width="1.51"/><path d="M-58,0L-57,199L-51,74Z" fill="#575757" stroke="#575757" stroke-width="1.51"/></svg>